<svg width="39" height="33" viewBox="0 0 39 33" fill="none" xmlns="http://www.w3.org/2000/svg">
<path d="M13.5651 23.6578H12.7173V24.4999H13.5651C14.0387 24.4987 14.4129 24.3144 14.4129 24.0783C14.4129 23.8422 14.0387 23.6578 13.5651 23.6578Z" fill="#29B6F6"/>
<path d="M6.78239 23.6578H5.93457V24.4999H6.78239C7.25849 24.4999 7.63021 24.3144 7.63021 24.0795C7.63276 23.8422 7.25849 23.6578 6.78239 23.6578Z" fill="#29B6F6"/>
<path d="M18.9911 14.7449C15.247 14.7449 12.209 11.7589 12.209 8.07892C12.209 5.43892 13.7962 3.09292 16.1566 2.02492C16.5371 1.30492 16.997 0.650918 17.5545 0.0789185H3.72985C1.66856 0.0789185 0 1.71892 0 3.74492V28.4109C0 30.4389 1.66856 32.0789 3.72985 32.0789H23.4006C25.4619 32.0789 27.1304 30.4389 27.1304 28.4129V14.7469H18.9911V14.7449ZM6.7821 26.7449H6.1045V28.4109C6.1045 28.9569 5.64259 29.4109 5.08708 29.4109C4.53157 29.4109 4.06967 28.9569 4.06967 28.4109V22.4109C4.06967 21.8649 4.53157 21.4109 5.08708 21.4109H6.7821C8.27363 21.4109 9.49453 22.6109 9.49453 24.0769C9.49657 25.5449 8.27567 26.7449 6.7821 26.7449ZM13.5662 26.7449H12.8886V28.4109C12.8886 28.9569 12.4267 29.4109 11.8712 29.4109C11.3157 29.4109 10.8538 28.9569 10.8538 28.4109V22.4109C10.8538 21.8649 11.3157 21.4109 11.8712 21.4109H13.5662C15.0578 21.4129 16.2787 22.6129 16.2787 24.0789C16.2787 25.5449 15.0578 26.7449 13.5662 26.7449ZM22.0434 23.4129H21.3658V28.4129C21.3658 28.9649 20.9099 29.4129 20.3483 29.4129C19.7867 29.4129 19.3309 28.9649 19.3309 28.4129V23.4129H18.6533C18.0917 23.4129 17.6359 22.9649 17.6359 22.4129C17.6359 21.8609 18.0917 21.4129 18.6533 21.4129H22.0454C22.607 21.4129 23.0628 21.8609 23.0628 22.4129C23.0628 22.9649 22.605 23.4129 22.0434 23.4129Z" fill="#29B6F6"/>
<path opacity="0.7" d="M28.5119 11.8789H20.0552C17.9025 11.8789 16.1519 10.1148 16.1519 7.94559C16.1519 6.03399 17.5102 4.43705 19.3058 4.08502C19.9811 1.75452 22.1377 0.0789185 24.6085 0.0789185C26.5583 0.0789185 28.3636 1.12519 29.3492 2.78309C31.4726 3.17445 33.0652 5.05458 33.0652 7.29068C33.0652 9.81982 31.0218 11.8789 28.5119 11.8789Z" fill="#29B6F6"/>
</svg>
