<svg width="26" height="26" viewBox="0 0 26 26" fill="none" xmlns="http://www.w3.org/2000/svg">
<g id="flame 1" clip-path="url(#clip0_3806_16921)">
<path id="Vector" d="M21.9326 18.5985C21.0505 24.2581 16.2862 25.5493 12.0998 25.3791C7.71898 25.201 4.16113 21.8054 4.16113 17.3995C4.16113 17.3995 4.16113 13.6442 7.6893 10.358C7.6893 10.358 6.23639 13.6702 8.64913 14.0614C11.0619 14.4525 8.70711 9.28933 10.9063 7.01946C12.8522 5.01015 13.9029 5.7862 14.7396 4.22168C16.0625 1.74694 14.6026 0.445984 14.6026 0.445984C14.6026 0.445984 18.8627 1.92138 17.5311 5.82505C17.1734 6.84072 16.563 7.74743 15.7581 8.4588C14.813 9.31015 13.2877 11.1693 15.4991 12.9134C16.8223 13.9568 19.4167 12.8093 19.7279 9.9404C19.7273 9.9396 22.5291 14.7723 21.9326 18.5985V18.5985Z" fill="white"/>
</g>
<defs>
<clipPath id="clip0_3806_16921">
<rect width="25.5" height="25.6346" fill="white" transform="translate(0.338867 0.0961304)"/>
</clipPath>
</defs>
</svg>
