<svg width="24" height="24" viewBox="0 0 24 24" fill="none" xmlns="http://www.w3.org/2000/svg">
<path d="M9.51421 10.8825L4.21004 10.251C3.91256 10.2155 3.6498 10.4471 3.64978 10.7467C3.64968 12.3743 3.72209 14.8192 5.04114 14.8192C6.33419 14.8192 8.89568 12.8613 9.83752 11.5064C10.0211 11.2424 9.83354 10.9205 9.51421 10.8825Z" fill="#29B6F6"/>
<path d="M14.4704 10.8825L19.7746 10.251C20.0721 10.2155 20.3348 10.4471 20.3349 10.7467C20.3349 12.3743 20.2625 14.8192 18.9435 14.8192C17.6504 14.8192 15.0889 12.8613 14.1471 11.5064C13.9635 11.2424 14.1511 10.9205 14.4704 10.8825Z" fill="#29B6F6"/>
<path d="M12.058 8.99267C9.1399 8.99267 4.7628 6.01318 2.02711 8.33056C-0.708576 10.6479 1.47997 17.6001 4.7628 17.6001C7.62915 17.6001 10.2406 14.908 11.5652 13.0496C11.7923 12.7311 12.2955 12.7468 12.5041 13.0777C13.6751 14.935 16.0453 17.6001 18.8972 17.6001C22.18 17.6001 24.3062 10.1846 22.0888 8.33056C19.8714 6.47657 14.976 8.99267 12.058 8.99267Z" stroke="#29B6F6" stroke-width="1.5" stroke-linejoin="round"/>
</svg>
