<svg width="24" height="24" viewBox="0 0 24 24" fill="none" xmlns="http://www.w3.org/2000/svg">
<path d="M17 20.3333C18.3807 20.3333 19.5 19.2141 19.5 17.8333C19.5 16.4526 18.3807 15.3333 17 15.3333C15.6192 15.3333 14.5 16.4526 14.5 17.8333C14.5 19.2141 15.6192 20.3333 17 20.3333Z" stroke="#29B6F6" stroke-width="1.5" stroke-linecap="round" stroke-linejoin="round"/>
<path d="M17 8.66666C18.3807 8.66666 19.5 7.54737 19.5 6.16666C19.5 4.78596 18.3807 3.66666 17 3.66666C15.6192 3.66666 14.5 4.78596 14.5 6.16666C14.5 7.54737 15.6192 8.66666 17 8.66666Z" stroke="#29B6F6" stroke-width="1.5" stroke-linecap="round" stroke-linejoin="round"/>
<path d="M7 14.5C8.38071 14.5 9.5 13.3807 9.5 12C9.5 10.6192 8.38071 9.5 7 9.5C5.61929 9.5 4.5 10.6192 4.5 12C4.5 13.3807 5.61929 14.5 7 14.5Z" stroke="#29B6F6" stroke-width="1.5" stroke-linecap="round" stroke-linejoin="round"/>
<path d="M14.9167 7.41666L9.08337 10.75" stroke="#29B6F6" stroke-width="1.5"/>
<path d="M9.08337 13.25L14.9167 16.5833" stroke="#29B6F6" stroke-width="1.5"/>
</svg>
