<svg width="375" height="180" viewBox="0 0 375 180" fill="none" xmlns="http://www.w3.org/2000/svg">
<g clip-path="url(#clip0_1076_15960)">
<mask id="mask0_1076_15960" style="mask-type:alpha" maskUnits="userSpaceOnUse" x="156" y="16" width="63" height="115">
<path d="M173.421 124.906C168.222 130.525 160.724 131.056 157.22 130.494C155.607 130.236 156.033 128.849 157.184 127.643L198.843 84.0051C206.789 75.6818 206.082 61.8794 197.79 53.9316C196.37 52.571 194.771 51.0349 192.953 49.2859C183.442 42.4233 179.872 37.8695 179.417 35.9715C179.279 35.3966 179.708 34.9107 180.104 34.4853C181.218 33.2893 184.402 29.9322 193.396 20.6635C204.852 8.85868 199.615 22.4565 202.951 31.2125C203.914 33.7393 205.549 35.9752 206.495 38.5088L211.562 52.0838C212.508 54.6173 214.062 56.8431 215.483 59.1227C220.221 66.723 219.392 76.9941 212.996 83.6601L173.421 124.906Z" fill="url(#paint0_linear_1076_15960)"/>
</mask>
<g mask="url(#mask0_1076_15960)">
<g filter="url(#filter0_d_1076_15960)">
<path d="M159.493 124.906C152.144 132.565 140.23 132.565 132.882 124.906C108.054 90.8345 94.5046 89.8755 101.853 82.217L151.404 32.0568C158.318 25.0577 169.142 24.6996 176.01 31.7478C182.598 38.5082 190.197 46.6807 199.068 55.9257C206.416 63.5845 206.416 76.0014 199.068 83.6601L159.493 124.906Z" fill="url(#paint1_linear_1076_15960)"/>
</g>
</g>
<mask id="mask1_1076_15960" style="mask-type:alpha" maskUnits="userSpaceOnUse" x="87" y="16" width="67" height="115">
<path d="M133.059 124.906C141.718 134.076 153.372 129.305 153.234 129.151L109.234 86.2179C104.657 81.4475 92.8452 67.2902 113.527 49.2859C123.038 42.4233 126.607 37.8695 127.063 35.9718C127.202 35.3966 126.772 34.9107 126.376 34.4853C125.262 33.2893 122.078 29.932 113.084 20.6635C101.628 8.85868 106.865 22.4565 103.529 31.2125C102.567 33.7393 100.931 35.9752 99.9852 38.5088L94.9181 52.0838C93.9724 54.6173 92.4181 56.8431 90.997 59.1227C86.259 66.723 87.088 76.9941 93.484 83.6601L133.059 124.906Z" fill="url(#paint2_linear_1076_15960)"/>
</mask>
<g mask="url(#mask1_1076_15960)">
<g filter="url(#filter1_d_1076_15960)">
<path d="M146.989 124.906C154.337 132.565 166.251 132.565 173.6 124.906C198.427 90.8345 211.977 89.8755 204.628 82.217L155.077 32.0568C148.163 25.0577 137.339 24.6996 130.471 31.7478C123.884 38.5082 116.284 46.6807 107.414 55.9257C100.065 63.5845 100.065 76.0014 107.414 83.6601L146.989 124.906Z" fill="url(#paint3_linear_1076_15960)"/>
</g>
</g>
<path d="M107.234 83.66L146.81 124.906C154.158 132.565 166.072 132.565 173.421 124.906L212.996 83.66C220.345 76.0014 220.345 63.5843 212.996 55.9256L173.421 14.6796C166.072 7.02098 154.158 7.02097 146.81 14.6796L107.234 55.9256C99.8858 63.5843 99.8859 76.0014 107.234 83.66Z" fill="url(#paint4_linear_1076_15960)"/>
<path d="M279.096 55.9257L239.52 14.6797C232.172 7.02106 220.258 7.02106 212.909 14.6797L173.334 55.9257C165.985 63.5844 165.985 76.0015 173.334 83.6601L212.909 124.906C220.258 132.565 232.172 132.565 239.52 124.906L279.096 83.6601C286.444 76.0015 286.444 63.5844 279.096 55.9257Z" fill="url(#paint5_linear_1076_15960)"/>
<path d="M93.3065 83.8477L132.882 125.094C140.23 132.752 152.145 132.752 159.493 125.094L199.068 83.8477C206.417 76.1891 206.417 63.772 199.068 56.1133L159.493 14.8673C152.145 7.2087 140.23 7.20868 132.882 14.8673L93.3065 56.1133C85.9581 63.772 85.9581 76.1891 93.3065 83.8477Z" fill="url(#paint6_linear_1076_15960)"/>
<path d="M265.168 55.9257L225.593 14.6797C218.244 7.02106 206.33 7.02106 198.982 14.6797L159.406 55.9257C152.058 63.5843 152.058 76.0014 159.406 83.6601L198.982 124.906C206.33 132.565 218.244 132.565 225.593 124.906L265.168 83.6601C272.517 76.0015 272.517 63.5843 265.168 55.9257Z" fill="url(#paint7_linear_1076_15960)"/>
</g>
<path d="M103.788 173C103.574 173 103.389 172.916 103.233 172.749C103.078 172.581 103 172.382 103 172.151V151.849C103 151.618 103.078 151.419 103.233 151.251C103.389 151.084 103.574 151 103.788 151H106.152C106.366 151 106.551 151.084 106.707 151.251C106.862 151.419 106.94 151.618 106.94 151.849V172.151C106.94 172.382 106.862 172.581 106.707 172.749C106.551 172.916 106.366 173 106.152 173H103.788Z" fill="#3B3B3B"/>
<path d="M133.851 151C134.065 151 134.25 151.084 134.406 151.251C134.561 151.419 134.639 151.618 134.639 151.849V154.08C134.639 154.31 134.561 154.51 134.406 154.677C134.25 154.845 134.065 154.929 133.851 154.929H128.598V172.151C128.598 172.382 128.52 172.581 128.364 172.749C128.208 172.916 128.024 173 127.809 173H125.445C125.231 173 125.046 172.916 124.891 172.749C124.735 172.581 124.657 172.382 124.657 172.151V154.929H119.404C119.19 154.929 119.005 154.845 118.849 154.677C118.693 154.51 118.616 154.31 118.616 154.08V151.849C118.616 151.618 118.693 151.419 118.849 151.251C119.005 151.084 119.19 151 119.404 151H133.851Z" fill="#3B3B3B"/>
<path d="M153.829 151C154.141 151 154.374 151.094 154.53 151.283C154.685 151.45 154.822 151.712 154.938 152.069L162.089 171.931C162.109 171.994 162.118 172.068 162.118 172.151C162.118 172.382 162.041 172.581 161.885 172.749C161.729 172.916 161.544 173 161.33 173H159.229C158.84 173 158.567 172.916 158.412 172.749C158.256 172.56 158.149 172.382 158.091 172.214L156.836 168.726H147.612L146.357 172.214C146.299 172.382 146.192 172.56 146.036 172.749C145.881 172.916 145.608 173 145.219 173H143.118C142.904 173 142.719 172.916 142.563 172.749C142.407 172.581 142.33 172.382 142.33 172.151C142.33 172.068 142.339 171.994 142.359 171.931L149.51 152.069C149.626 151.712 149.763 151.45 149.918 151.283C150.074 151.094 150.307 151 150.619 151H153.829ZM155.435 164.797L152.224 155.84L149.013 164.797H155.435Z" fill="#3B3B3B"/>
<path d="M187.106 169.071C187.32 169.071 187.504 169.155 187.66 169.323C187.816 169.49 187.894 169.69 187.894 169.92V172.151C187.894 172.382 187.816 172.581 187.66 172.749C187.504 172.916 187.32 173 187.106 173H174.322C174.108 173 173.923 172.916 173.767 172.749C173.611 172.581 173.534 172.382 173.534 172.151V151.849C173.534 151.618 173.611 151.419 173.767 151.251C173.923 151.084 174.108 151 174.322 151H176.686C176.9 151 177.085 151.084 177.24 151.251C177.396 151.419 177.474 151.618 177.474 151.849V169.071H187.106Z" fill="#3B3B3B"/>
<path d="M213.05 169.071C213.264 169.071 213.449 169.155 213.604 169.323C213.76 169.49 213.838 169.69 213.838 169.92V172.151C213.838 172.382 213.76 172.581 213.604 172.749C213.449 172.916 213.264 173 213.05 173H200.237C200.022 173 199.838 172.916 199.682 172.749C199.526 172.581 199.448 172.382 199.448 172.151V151.849C199.448 151.618 199.526 151.419 199.682 151.251C199.838 151.084 200.022 151 200.237 151H212.816C213.03 151 213.215 151.084 213.371 151.251C213.526 151.419 213.604 151.618 213.604 151.849V154.08C213.604 154.31 213.526 154.51 213.371 154.677C213.215 154.845 213.03 154.929 212.816 154.929H203.389V159.926H212.174C212.388 159.926 212.573 160.01 212.729 160.177C212.884 160.345 212.962 160.544 212.962 160.774V163.006C212.962 163.236 212.884 163.435 212.729 163.603C212.573 163.77 212.388 163.854 212.174 163.854H203.389V169.071H213.05Z" fill="#3B3B3B"/>
<path d="M239.469 173C239.139 173 238.886 172.906 238.711 172.717C238.535 172.529 238.409 172.382 238.331 172.277L230.159 159.203V172.151C230.159 172.382 230.081 172.581 229.925 172.749C229.77 172.916 229.585 173 229.371 173H227.007C226.792 173 226.608 172.916 226.452 172.749C226.296 172.581 226.218 172.382 226.218 172.151V151.849C226.218 151.618 226.296 151.419 226.452 151.251C226.608 151.084 226.792 151 227.007 151H229.05C229.38 151 229.633 151.094 229.808 151.283C229.984 151.471 230.11 151.618 230.188 151.723L238.36 164.797V151.849C238.36 151.618 238.438 151.419 238.594 151.251C238.749 151.084 238.934 151 239.148 151H241.512C241.727 151 241.911 151.084 242.067 151.251C242.223 151.419 242.301 151.618 242.301 151.849V172.151C242.301 172.382 242.223 172.581 242.067 172.749C241.911 172.916 241.727 173 241.512 173H239.469Z" fill="#3B3B3B"/>
<path d="M269.212 151C269.426 151 269.611 151.084 269.767 151.251C269.922 151.419 270 151.618 270 151.849V154.08C270 154.31 269.922 154.51 269.767 154.677C269.611 154.845 269.426 154.929 269.212 154.929H263.958V172.151C263.958 172.382 263.88 172.581 263.725 172.749C263.569 172.916 263.384 173 263.17 173H260.806C260.592 173 260.407 172.916 260.252 172.749C260.096 172.581 260.018 172.382 260.018 172.151V154.929H254.764C254.55 154.929 254.365 154.845 254.21 154.677C254.054 154.51 253.976 154.31 253.976 154.08V151.849C253.976 151.618 254.054 151.419 254.21 151.251C254.365 151.084 254.55 151 254.764 151H269.212Z" fill="#3B3B3B"/>
<defs>
<filter id="filter0_d_1076_15960" x="91.8594" y="21.6316" width="120.719" height="120.018" filterUnits="userSpaceOnUse" color-interpolation-filters="sRGB">
<feFlood flood-opacity="0" result="BackgroundImageFix"/>
<feColorMatrix in="SourceAlpha" type="matrix" values="0 0 0 0 0 0 0 0 0 0 0 0 0 0 0 0 0 0 127 0" result="hardAlpha"/>
<feOffset dy="3"/>
<feGaussianBlur stdDeviation="4"/>
<feColorMatrix type="matrix" values="0 0 0 0 0.270833 0 0 0 0 0.270833 0 0 0 0 0.270833 0 0 0 0.5 0"/>
<feBlend mode="normal" in2="BackgroundImageFix" result="effect1_dropShadow_1076_15960"/>
<feBlend mode="normal" in="SourceGraphic" in2="effect1_dropShadow_1076_15960" result="shape"/>
</filter>
<filter id="filter1_d_1076_15960" x="95.9023" y="25.6316" width="114.719" height="114.018" filterUnits="userSpaceOnUse" color-interpolation-filters="sRGB">
<feFlood flood-opacity="0" result="BackgroundImageFix"/>
<feColorMatrix in="SourceAlpha" type="matrix" values="0 0 0 0 0 0 0 0 0 0 0 0 0 0 0 0 0 0 127 0" result="hardAlpha"/>
<feOffset dx="-1" dy="4"/>
<feGaussianBlur stdDeviation="2.5"/>
<feColorMatrix type="matrix" values="0 0 0 0 0.270833 0 0 0 0 0.270833 0 0 0 0 0.270833 0 0 0 1 0"/>
<feBlend mode="normal" in2="BackgroundImageFix" result="effect1_dropShadow_1076_15960"/>
<feBlend mode="normal" in="SourceGraphic" in2="effect1_dropShadow_1076_15960" result="shape"/>
</filter>
<linearGradient id="paint0_linear_1076_15960" x1="165.195" y1="130.69" x2="219.156" y2="56.7691" gradientUnits="userSpaceOnUse">
<stop stop-color="#00F5A0"/>
<stop offset="1" stop-color="#00F5A0" stop-opacity="0.1"/>
</linearGradient>
<linearGradient id="paint1_linear_1076_15960" x1="152.219" y1="19.7402" x2="152.219" y2="130.65" gradientUnits="userSpaceOnUse">
<stop offset="0.015625" stop-color="#00F5A0"/>
<stop offset="0.015725" stop-color="#00F5A0"/>
<stop offset="0.9998" stop-color="#00F0FF" stop-opacity="0.05"/>
<stop offset="0.9999" stop-color="#00F0FF" stop-opacity="0.05"/>
</linearGradient>
<linearGradient id="paint2_linear_1076_15960" x1="144.081" y1="133.306" x2="93.1329" y2="65.2864" gradientUnits="userSpaceOnUse">
<stop stop-color="#00F5A0"/>
<stop offset="1" stop-color="#00F5A0" stop-opacity="0.1"/>
</linearGradient>
<linearGradient id="paint3_linear_1076_15960" x1="154.262" y1="19.7402" x2="154.262" y2="130.65" gradientUnits="userSpaceOnUse">
<stop offset="0.015625" stop-color="#00F5A0"/>
<stop offset="0.015725" stop-color="#00F5A0"/>
<stop offset="0.9998" stop-color="#00F0FF" stop-opacity="0.05"/>
<stop offset="0.9999" stop-color="#00F0FF" stop-opacity="0.05"/>
</linearGradient>
<linearGradient id="paint4_linear_1076_15960" x1="127.022" y1="104.283" x2="195.943" y2="38.1531" gradientUnits="userSpaceOnUse">
<stop offset="0.015625" stop-color="#00F5A0"/>
<stop offset="0.015725" stop-color="#00F5A0"/>
<stop offset="0.9998" stop-color="#00F0FF" stop-opacity="0.05"/>
<stop offset="0.9999" stop-color="#00F0FF" stop-opacity="0.05"/>
</linearGradient>
<linearGradient id="paint5_linear_1076_15960" x1="259.308" y1="35.3027" x2="190.387" y2="101.433" gradientUnits="userSpaceOnUse">
<stop stop-color="#15C5FE"/>
<stop offset="0.0001" stop-color="#15C5FE"/>
<stop offset="0.9999" stop-color="#04A5FF" stop-opacity="0.05"/>
<stop offset="1" stop-color="#04A5FF" stop-opacity="0.05"/>
</linearGradient>
<linearGradient id="paint6_linear_1076_15960" x1="113.094" y1="104.471" x2="182.016" y2="38.3407" gradientUnits="userSpaceOnUse">
<stop offset="0.015625" stop-color="#00F5A0"/>
<stop offset="0.015725" stop-color="#00F5A0"/>
<stop offset="0.9998" stop-color="#00F0FF" stop-opacity="0.05"/>
<stop offset="0.9999" stop-color="#00F0FF" stop-opacity="0.05"/>
</linearGradient>
<linearGradient id="paint7_linear_1076_15960" x1="245.38" y1="35.3027" x2="176.459" y2="101.433" gradientUnits="userSpaceOnUse">
<stop stop-color="#15C5FE"/>
<stop offset="0.0001" stop-color="#15C5FE"/>
<stop offset="0.9999" stop-color="#04A5FF" stop-opacity="0.05"/>
<stop offset="1" stop-color="#04A5FF" stop-opacity="0.05"/>
</linearGradient>
<clipPath id="clip0_1076_15960">
<rect width="212.617" height="138.188" fill="white" transform="translate(80 0.8125)"/>
</clipPath>
</defs>
</svg>
