<svg width="147" height="37" viewBox="0 0 147 37" fill="none" xmlns="http://www.w3.org/2000/svg">
<g clip-path="url(#clip0_1076_16990)">
<mask id="mask0_1076_16990" style="mask-type:alpha" maskUnits="userSpaceOnUse" x="19" y="4" width="18" height="31">
<path d="M24.3555 33.2407C23.0001 34.7049 21.0453 34.843 20.1317 34.6967C19.7111 34.6294 19.8223 34.268 20.1224 33.9538L30.9836 22.5843C33.0553 20.4157 32.8707 16.8195 30.7089 14.7488C30.3387 14.3943 29.9219 13.994 29.448 13.5383C26.9682 11.7503 26.0376 10.5639 25.9188 10.0694C25.8828 9.91957 25.9947 9.79295 26.098 9.68213C26.3884 9.37053 27.2185 8.49584 29.5635 6.08092C32.5501 3.00524 31.1847 6.54808 32.0545 8.82941C32.3055 9.48776 32.7319 10.0703 32.9784 10.7304L34.2995 14.2673C34.5461 14.9274 34.9513 15.5073 35.3218 16.1013C36.557 18.0815 36.3409 20.7576 34.6734 22.4944L24.3555 33.2407Z" fill="url(#paint0_linear_1076_16990)"/>
</mask>
<g mask="url(#mask0_1076_16990)">
<g filter="url(#filter0_d_1076_16990)">
<path d="M20.724 33.2408C18.8081 35.2362 15.7019 35.2362 13.7861 33.2408C7.31331 24.3636 3.7807 24.1137 5.69654 22.1184L18.6152 9.04937C20.4178 7.22579 23.2398 7.1325 25.0304 8.96886C26.7478 10.7303 28.7291 12.8595 31.0418 15.2683C32.9576 17.2638 32.9576 20.4989 31.0418 22.4944L20.724 33.2408Z" fill="url(#paint1_linear_1076_16990)"/>
</g>
</g>
<mask id="mask1_1076_16990" style="mask-type:alpha" maskUnits="userSpaceOnUse" x="2" y="4" width="18" height="31">
<path d="M13.8339 33.2407C16.0912 35.6299 19.1297 34.387 19.0938 34.3469L7.62236 23.1608C6.42902 21.9179 3.34944 18.2293 8.7414 13.5383C11.2211 11.7503 12.1517 10.5639 12.2706 10.0694C12.3066 9.91957 12.1946 9.79295 12.0914 9.68213C11.801 9.37052 10.9708 8.49578 8.62592 6.08092C5.63929 3.00524 7.00464 6.54808 6.13492 8.82941C5.88395 9.48776 5.45751 10.0703 5.21094 10.7304L3.88988 14.2673C3.64331 14.9274 3.23809 15.5073 2.86759 16.1013C1.63233 18.0815 1.84846 20.7576 3.51598 22.4944L13.8339 33.2407Z" fill="url(#paint2_linear_1076_16990)"/>
</mask>
<g mask="url(#mask1_1076_16990)">
<g filter="url(#filter1_d_1076_16990)">
<path d="M17.4647 33.2408C19.3805 35.2362 22.4867 35.2362 24.4026 33.2408C30.8753 24.3636 34.408 24.1137 32.4921 22.1184L19.5735 9.04937C17.7709 7.22579 14.9489 7.1325 13.1583 8.96886C11.4408 10.7303 9.45954 12.8595 7.14685 15.2683C5.231 17.2638 5.231 20.4989 7.14684 22.4944L17.4647 33.2408Z" fill="url(#paint3_linear_1076_16990)"/>
</g>
</g>
<path d="M7.0999 22.4945L17.4178 33.2409C19.3336 35.2363 22.4398 35.2363 24.3557 33.2409L34.6735 22.4945C36.5894 20.4991 36.5894 17.2638 34.6735 15.2684L24.3557 4.52198C22.4398 2.52656 19.3336 2.52656 17.4178 4.52198L7.0999 15.2684C5.18406 17.2638 5.18406 20.4991 7.0999 22.4945Z" fill="url(#paint4_linear_1076_16990)"/>
<path d="M51.9069 15.2684L41.5891 4.522C39.6732 2.52657 36.567 2.52657 34.6512 4.522L24.3333 15.2684C22.4175 17.2639 22.4175 20.4991 24.3333 22.4945L34.6512 33.2409C36.567 35.2364 39.6732 35.2364 41.5891 33.2409L51.9069 22.4945C53.8228 20.4991 53.8228 17.2639 51.9069 15.2684Z" fill="url(#paint5_linear_1076_16990)"/>
<path d="M3.46903 22.4945L13.7869 33.2409C15.7028 35.2363 18.809 35.2363 20.7248 33.2409L31.0427 22.4945C32.9585 20.4991 32.9585 17.2638 31.0427 15.2684L20.7248 4.52198C18.809 2.52656 15.7028 2.52656 13.7869 4.52198L3.46903 15.2684C1.55318 17.2638 1.55319 20.4991 3.46903 22.4945Z" fill="url(#paint6_linear_1076_16990)"/>
<path d="M48.2761 15.2684L37.9582 4.522C36.0424 2.52658 32.9362 2.52657 31.0203 4.52199L20.7024 15.2684C18.7866 17.2639 18.7866 20.4991 20.7024 22.4945L31.0203 33.2409C32.9362 35.2363 36.0424 35.2364 37.9582 33.2409L48.2761 22.4945C50.1919 20.4991 50.1919 17.2639 48.2761 15.2684Z" fill="url(#paint7_linear_1076_16990)"/>
</g>
<path d="M64.1897 24.9117C64.0838 24.9117 63.9923 24.8701 63.9153 24.787C63.8383 24.7038 63.7998 24.6051 63.7998 24.4908V14.4222C63.7998 14.3079 63.8383 14.2092 63.9153 14.126C63.9923 14.0429 64.0838 14.0013 64.1897 14.0013H65.3594C65.4653 14.0013 65.5568 14.0429 65.6338 14.126C65.7108 14.2092 65.7493 14.3079 65.7493 14.4222V24.4908C65.7493 24.6051 65.7108 24.7038 65.6338 24.787C65.5568 24.8701 65.4653 24.9117 65.3594 24.9117H64.1897Z" fill="#3B3B3B"/>
<path d="M79.0639 14.0013C79.1698 14.0013 79.2612 14.0429 79.3382 14.126C79.4153 14.2092 79.4538 14.3079 79.4538 14.4222V15.5288C79.4538 15.6431 79.4153 15.7418 79.3382 15.8249C79.2612 15.9081 79.1698 15.9496 79.0639 15.9496H76.4645V24.4908C76.4645 24.6051 76.426 24.7038 76.349 24.787C76.272 24.8701 76.1805 24.9117 76.0746 24.9117H74.9049C74.799 24.9117 74.7076 24.8701 74.6306 24.787C74.5536 24.7038 74.515 24.6051 74.515 24.4908V15.9496H71.9157C71.8098 15.9496 71.7184 15.9081 71.6413 15.8249C71.5643 15.7418 71.5258 15.6431 71.5258 15.5288V14.4222C71.5258 14.3079 71.5643 14.2092 71.6413 14.126C71.7184 14.0429 71.8098 14.0013 71.9157 14.0013H79.0639Z" fill="#3B3B3B"/>
<path d="M88.9483 14.0013C89.1024 14.0013 89.2179 14.0481 89.2949 14.1416C89.3719 14.2247 89.4393 14.3546 89.4971 14.5313L93.035 24.3817C93.0447 24.4129 93.0495 24.4493 93.0495 24.4908C93.0495 24.6051 93.011 24.7038 92.934 24.787C92.8569 24.8701 92.7655 24.9117 92.6596 24.9117H91.6199C91.4273 24.9117 91.2925 24.8701 91.2155 24.787C91.1385 24.6935 91.0855 24.6051 91.0567 24.522L90.4357 22.7919H85.8724L85.2515 24.522C85.2226 24.6051 85.1697 24.6935 85.0926 24.787C85.0156 24.8701 84.8808 24.9117 84.6883 24.9117H83.6486C83.5427 24.9117 83.4512 24.8701 83.3742 24.787C83.2972 24.7038 83.2587 24.6051 83.2587 24.4908C83.2587 24.4493 83.2635 24.4129 83.2731 24.3817L86.8111 14.5313C86.8689 14.3546 86.9362 14.2247 87.0133 14.1416C87.0903 14.0481 87.2058 14.0013 87.3598 14.0013H88.9483ZM89.7426 20.8437L88.1541 16.4016L86.5656 20.8437H89.7426Z" fill="#3B3B3B"/>
<path d="M105.412 22.9634C105.518 22.9634 105.61 23.005 105.687 23.0881C105.764 23.1712 105.802 23.2699 105.802 23.3842V24.4908C105.802 24.6051 105.764 24.7038 105.687 24.787C105.61 24.8701 105.518 24.9117 105.412 24.9117H99.0872C98.9813 24.9117 98.8898 24.8701 98.8128 24.787C98.7358 24.7038 98.6973 24.6051 98.6973 24.4908V14.4222C98.6973 14.3079 98.7358 14.2092 98.8128 14.126C98.8898 14.0429 98.9813 14.0013 99.0872 14.0013H100.257C100.363 14.0013 100.454 14.0429 100.531 14.126C100.608 14.2092 100.647 14.3079 100.647 14.4222V22.9634H105.412Z" fill="#3B3B3B"/>
<path d="M118.248 22.9634C118.354 22.9634 118.446 23.005 118.523 23.0881C118.6 23.1712 118.638 23.2699 118.638 23.3842V24.4908C118.638 24.6051 118.6 24.7038 118.523 24.787C118.446 24.8701 118.354 24.9117 118.248 24.9117H111.909C111.803 24.9117 111.712 24.8701 111.635 24.787C111.558 24.7038 111.519 24.6051 111.519 24.4908V14.4222C111.519 14.3079 111.558 14.2092 111.635 14.126C111.712 14.0429 111.803 14.0013 111.909 14.0013H118.133C118.239 14.0013 118.33 14.0429 118.407 14.126C118.484 14.2092 118.523 14.3079 118.523 14.4222V15.5288C118.523 15.6431 118.484 15.7418 118.407 15.8249C118.33 15.9081 118.239 15.9496 118.133 15.9496H113.469V18.4278H117.815C117.921 18.4278 118.013 18.4694 118.09 18.5525C118.167 18.6356 118.205 18.7343 118.205 18.8486V19.9553C118.205 20.0696 118.167 20.1683 118.09 20.2514C118.013 20.3345 117.921 20.3761 117.815 20.3761H113.469V22.9634H118.248Z" fill="#3B3B3B"/>
<path d="M131.32 24.9117C131.156 24.9117 131.031 24.8649 130.945 24.7714C130.858 24.6779 130.795 24.6051 130.757 24.5532L126.713 18.0693V24.4908C126.713 24.6051 126.675 24.7038 126.598 24.787C126.521 24.8701 126.429 24.9117 126.323 24.9117H125.154C125.048 24.9117 124.956 24.8701 124.879 24.787C124.802 24.7038 124.764 24.6051 124.764 24.4908V14.4222C124.764 14.3079 124.802 14.2092 124.879 14.126C124.956 14.0429 125.048 14.0013 125.154 14.0013H126.165C126.328 14.0013 126.453 14.0481 126.54 14.1416C126.627 14.2351 126.689 14.3079 126.728 14.3598L130.771 20.8437V14.4222C130.771 14.3079 130.81 14.2092 130.887 14.126C130.964 14.0429 131.055 14.0013 131.161 14.0013H132.331C132.437 14.0013 132.528 14.0429 132.605 14.126C132.682 14.2092 132.721 14.3079 132.721 14.4222V24.4908C132.721 24.6051 132.682 24.7038 132.605 24.787C132.528 24.8701 132.437 24.9117 132.331 24.9117H131.32Z" fill="#3B3B3B"/>
<path d="M146.036 14.0013C146.141 14.0013 146.233 14.0429 146.31 14.126C146.387 14.2092 146.425 14.3079 146.425 14.4222V15.5288C146.425 15.6431 146.387 15.7418 146.31 15.8249C146.233 15.9081 146.141 15.9496 146.036 15.9496H143.436V24.4908C143.436 24.6051 143.398 24.7038 143.321 24.787C143.244 24.8701 143.152 24.9117 143.046 24.9117H141.877C141.771 24.9117 141.679 24.8701 141.602 24.787C141.525 24.7038 141.487 24.6051 141.487 24.4908V15.9496H138.887C138.781 15.9496 138.69 15.9081 138.613 15.8249C138.536 15.7418 138.497 15.6431 138.497 15.5288V14.4222C138.497 14.3079 138.536 14.2092 138.613 14.126C138.69 14.0429 138.781 14.0013 138.887 14.0013H146.036Z" fill="#3B3B3B"/>
<defs>
<filter id="filter0_d_1076_16990" x="-2.82324" y="2.63586" width="43.3018" height="43.1015" filterUnits="userSpaceOnUse" color-interpolation-filters="sRGB">
<feFlood flood-opacity="0" result="BackgroundImageFix"/>
<feColorMatrix in="SourceAlpha" type="matrix" values="0 0 0 0 0 0 0 0 0 0 0 0 0 0 0 0 0 0 127 0" result="hardAlpha"/>
<feOffset dy="3"/>
<feGaussianBlur stdDeviation="4"/>
<feColorMatrix type="matrix" values="0 0 0 0 0.270833 0 0 0 0 0.270833 0 0 0 0 0.270833 0 0 0 0.5 0"/>
<feBlend mode="normal" in2="BackgroundImageFix" result="effect1_dropShadow_1076_16990"/>
<feBlend mode="normal" in="SourceGraphic" in2="effect1_dropShadow_1076_16990" result="shape"/>
</filter>
<filter id="filter1_d_1076_16990" x="-0.290039" y="6.63586" width="37.3018" height="37.1015" filterUnits="userSpaceOnUse" color-interpolation-filters="sRGB">
<feFlood flood-opacity="0" result="BackgroundImageFix"/>
<feColorMatrix in="SourceAlpha" type="matrix" values="0 0 0 0 0 0 0 0 0 0 0 0 0 0 0 0 0 0 127 0" result="hardAlpha"/>
<feOffset dx="-1" dy="4"/>
<feGaussianBlur stdDeviation="2.5"/>
<feColorMatrix type="matrix" values="0 0 0 0 0.270833 0 0 0 0 0.270833 0 0 0 0 0.270833 0 0 0 1 0"/>
<feBlend mode="normal" in2="BackgroundImageFix" result="effect1_dropShadow_1076_16990"/>
<feBlend mode="normal" in="SourceGraphic" in2="effect1_dropShadow_1076_16990" result="shape"/>
</filter>
<linearGradient id="paint0_linear_1076_16990" x1="22.211" y1="34.7479" x2="36.2674" y2="15.4794" gradientUnits="userSpaceOnUse">
<stop stop-color="#00F5A0"/>
<stop offset="1" stop-color="#00F5A0" stop-opacity="0.1"/>
</linearGradient>
<linearGradient id="paint1_linear_1076_16990" x1="18.8278" y1="5.84034" x2="18.8278" y2="34.7374" gradientUnits="userSpaceOnUse">
<stop offset="0.015625" stop-color="#00F5A0"/>
<stop offset="0.015725" stop-color="#00F5A0"/>
<stop offset="0.9998" stop-color="#00F0FF" stop-opacity="0.05"/>
<stop offset="0.9999" stop-color="#00F0FF" stop-opacity="0.05"/>
</linearGradient>
<linearGradient id="paint2_linear_1076_16990" x1="16.7073" y1="35.4294" x2="3.43551" y2="17.6989" gradientUnits="userSpaceOnUse">
<stop stop-color="#00F5A0"/>
<stop offset="1" stop-color="#00F5A0" stop-opacity="0.1"/>
</linearGradient>
<linearGradient id="paint3_linear_1076_16990" x1="19.3609" y1="5.84034" x2="19.3609" y2="34.7374" gradientUnits="userSpaceOnUse">
<stop offset="0.015625" stop-color="#00F5A0"/>
<stop offset="0.015725" stop-color="#00F5A0"/>
<stop offset="0.9998" stop-color="#00F0FF" stop-opacity="0.05"/>
<stop offset="0.9999" stop-color="#00F0FF" stop-opacity="0.05"/>
</linearGradient>
<linearGradient id="paint4_linear_1076_16990" x1="12.2588" y1="27.8677" x2="30.2165" y2="10.6262" gradientUnits="userSpaceOnUse">
<stop offset="0.015625" stop-color="#00F5A0"/>
<stop offset="0.015725" stop-color="#00F5A0"/>
<stop offset="0.9998" stop-color="#00F0FF" stop-opacity="0.05"/>
<stop offset="0.9999" stop-color="#00F0FF" stop-opacity="0.05"/>
</linearGradient>
<linearGradient id="paint5_linear_1076_16990" x1="46.748" y1="9.89522" x2="28.7904" y2="27.1367" gradientUnits="userSpaceOnUse">
<stop stop-color="#15C5FE"/>
<stop offset="0.0001" stop-color="#15C5FE"/>
<stop offset="0.9999" stop-color="#04A5FF" stop-opacity="0.05"/>
<stop offset="1" stop-color="#04A5FF" stop-opacity="0.05"/>
</linearGradient>
<linearGradient id="paint6_linear_1076_16990" x1="8.62797" y1="27.8677" x2="26.5856" y2="10.6262" gradientUnits="userSpaceOnUse">
<stop offset="0.015625" stop-color="#00F5A0"/>
<stop offset="0.015725" stop-color="#00F5A0"/>
<stop offset="0.9998" stop-color="#00F0FF" stop-opacity="0.05"/>
<stop offset="0.9999" stop-color="#00F0FF" stop-opacity="0.05"/>
</linearGradient>
<linearGradient id="paint7_linear_1076_16990" x1="43.1171" y1="9.89521" x2="25.1595" y2="27.1367" gradientUnits="userSpaceOnUse">
<stop stop-color="#15C5FE"/>
<stop offset="0.0001" stop-color="#15C5FE"/>
<stop offset="0.9999" stop-color="#04A5FF" stop-opacity="0.05"/>
<stop offset="1" stop-color="#04A5FF" stop-opacity="0.05"/>
</linearGradient>
<clipPath id="clip0_1076_16990">
<rect width="55.4324" height="36.0041" fill="white" transform="translate(0 0.908966)"/>
</clipPath>
</defs>
</svg>
