<svg width="93" height="23" viewBox="0 0 93 23" fill="none" xmlns="http://www.w3.org/2000/svg">
<g clip-path="url(#clip0_3715_5435)">
<mask id="mask0_3715_5435" style="mask-type:alpha" maskUnits="userSpaceOnUse" x="13" y="2" width="11" height="20">
<path d="M15.8474 20.6859C14.9932 21.6086 13.7615 21.6956 13.1858 21.6034C12.9208 21.561 12.9908 21.3333 13.1799 21.1353L20.024 13.9709C21.3294 12.6044 21.2131 10.3383 19.8508 9.03347C19.6176 8.81008 19.355 8.55789 19.0563 8.27073C17.4937 7.14404 16.9073 6.39641 16.8324 6.0848C16.8097 5.99041 16.8803 5.91063 16.9454 5.8408C17.1284 5.64444 17.6515 5.09327 19.1291 3.57153C21.0111 1.63344 20.1507 3.86591 20.6988 5.30346C20.8569 5.71831 21.1256 6.08541 21.281 6.50136L22.1134 8.73009C22.2688 9.14605 22.5241 9.51147 22.7576 9.88574C23.536 11.1336 23.3998 12.8199 22.3491 13.9143L15.8474 20.6859Z" fill="url(#paint0_linear_3715_5435)"/>
</mask>
<g mask="url(#mask0_3715_5435)">
<g filter="url(#filter0_d_3715_5435)">
<path d="M13.5596 20.686C12.3523 21.9434 10.395 21.9434 9.18776 20.686C5.10901 15.0921 2.88299 14.9347 4.09023 13.6773L12.2307 5.44206C13.3666 4.29295 15.1449 4.23417 16.2732 5.39133C17.3554 6.50125 18.6039 7.843 20.0612 9.36084C21.2684 10.6183 21.2684 12.6568 20.0612 13.9143L13.5596 20.686Z" fill="url(#paint1_linear_3715_5435)"/>
</g>
</g>
<mask id="mask1_3715_5435" style="mask-type:alpha" maskUnits="userSpaceOnUse" x="1" y="2" width="12" height="20">
<path d="M9.21668 20.6859C10.6391 22.1915 12.5538 21.4083 12.5311 21.383L5.30258 14.3342C4.55062 13.551 2.61006 11.2267 6.00773 8.27073C7.57027 7.14404 8.1567 6.39641 8.23161 6.08485C8.25431 5.99041 8.18372 5.91063 8.11867 5.8408C7.93567 5.64444 7.41255 5.09323 5.93496 3.57153C4.05298 1.63344 4.91333 3.86591 4.36529 5.30346C4.20715 5.71831 3.93843 6.08541 3.78306 6.50136L2.95061 8.73009C2.79524 9.14605 2.53989 9.51147 2.30643 9.88574C1.52804 11.1336 1.66423 12.8199 2.715 13.9143L9.21668 20.6859Z" fill="url(#paint2_linear_3715_5435)"/>
</mask>
<g mask="url(#mask1_3715_5435)">
<g filter="url(#filter1_d_3715_5435)">
<path d="M11.5047 20.686C12.712 21.9434 14.6693 21.9434 15.8766 20.686C19.9553 15.0921 22.1813 14.9347 20.9741 13.6773L12.8336 5.44206C11.6977 4.29295 9.91944 4.23417 8.79111 5.39133C7.70886 6.50125 6.4604 7.843 5.00309 9.36084C3.79585 10.6183 3.79584 12.6568 5.00309 13.9143L11.5047 20.686Z" fill="url(#paint3_linear_3715_5435)"/>
</g>
</g>
<path d="M4.97453 13.9143L11.4762 20.6861C12.6834 21.9435 14.6408 21.9435 15.848 20.6861L22.3497 13.9143C23.5569 12.6569 23.5569 10.6183 22.3497 9.36093L15.848 2.5892C14.6408 1.33181 12.6834 1.33181 11.4762 2.5892L4.97452 9.36093C3.76728 10.6183 3.76728 12.6569 4.97453 13.9143Z" fill="url(#paint4_linear_3715_5435)"/>
<path d="M33.2091 9.36094L26.7074 2.58921C25.5001 1.33182 23.5428 1.33182 22.3356 2.58921L15.8339 9.36094C14.6267 10.6183 14.6267 12.657 15.8339 13.9144L22.3356 20.6861C23.5428 21.9435 25.5001 21.9435 26.7074 20.6861L33.2091 13.9144C34.4163 12.657 34.4163 10.6183 33.2091 9.36094Z" fill="url(#paint5_linear_3715_5435)"/>
<path d="M2.68546 13.9143L9.18714 20.6861C10.3944 21.9435 12.3517 21.9435 13.559 20.6861L20.0606 13.9143C21.2679 12.6569 21.2679 10.6183 20.0606 9.36092L13.559 2.58919C12.3517 1.33181 10.3944 1.3318 9.18714 2.58919L2.68546 9.36092C1.47821 10.6183 1.47821 12.6569 2.68546 13.9143Z" fill="url(#paint6_linear_3715_5435)"/>
<path d="M30.92 9.36093L24.4183 2.5892C23.2111 1.33182 21.2538 1.33182 20.0465 2.5892L13.5448 9.36093C12.3376 10.6183 12.3376 12.657 13.5448 13.9143L20.0465 20.6861C21.2538 21.9435 23.2111 21.9435 24.4183 20.6861L30.92 13.9143C32.1273 12.657 32.1273 10.6183 30.92 9.36093Z" fill="url(#paint7_linear_3715_5435)"/>
</g>
<path d="M40.9478 15.4375C40.8811 15.4375 40.8235 15.4113 40.7749 15.3589C40.7264 15.3065 40.7021 15.2443 40.7021 15.1723V8.82768C40.7021 8.75566 40.7264 8.69345 40.7749 8.64107C40.8235 8.58869 40.8811 8.5625 40.9478 8.5625H41.6849C41.7516 8.5625 41.8093 8.58869 41.8578 8.64107C41.9063 8.69345 41.9306 8.75566 41.9306 8.82768V15.1723C41.9306 15.2443 41.9063 15.3065 41.8578 15.3589C41.8093 15.4113 41.7516 15.4375 41.6849 15.4375H40.9478Z" fill="#3B3B3B"/>
<path d="M50.3206 8.5625C50.3873 8.5625 50.445 8.58869 50.4935 8.64107C50.542 8.69345 50.5663 8.75566 50.5663 8.82768V9.525C50.5663 9.59702 50.542 9.65923 50.4935 9.71161C50.445 9.76399 50.3873 9.79018 50.3206 9.79018H48.6827V15.1723C48.6827 15.2443 48.6584 15.3065 48.6099 15.3589C48.5613 15.4113 48.5037 15.4375 48.437 15.4375H47.6999C47.6332 15.4375 47.5755 15.4113 47.527 15.3589C47.4785 15.3065 47.4542 15.2443 47.4542 15.1723V9.79018H45.8163C45.7496 9.79018 45.6919 9.76399 45.6434 9.71161C45.5949 9.65923 45.5706 9.59702 45.5706 9.525V8.82768C45.5706 8.75566 45.5949 8.69345 45.6434 8.64107C45.6919 8.58869 45.7496 8.5625 45.8163 8.5625H50.3206Z" fill="#3B3B3B"/>
<path d="M56.5492 8.5625C56.6462 8.5625 56.719 8.59196 56.7675 8.65089C56.8161 8.70327 56.8585 8.78512 56.8949 8.89643L59.1244 15.1036C59.1304 15.1232 59.1335 15.1461 59.1335 15.1723C59.1335 15.2443 59.1092 15.3065 59.0607 15.3589C59.0121 15.4113 58.9545 15.4375 58.8878 15.4375H58.2326C58.1113 15.4375 58.0263 15.4113 57.9778 15.3589C57.9293 15.3 57.8959 15.2443 57.8777 15.192L57.4864 14.1018H54.6109L54.2197 15.192C54.2015 15.2443 54.1681 15.3 54.1196 15.3589C54.071 15.4113 53.9861 15.4375 53.8648 15.4375H53.2096C53.1429 15.4375 53.0852 15.4113 53.0367 15.3589C52.9882 15.3065 52.9639 15.2443 52.9639 15.1723C52.9639 15.1461 52.9669 15.1232 52.973 15.1036L55.2024 8.89643C55.2388 8.78512 55.2813 8.70327 55.3298 8.65089C55.3783 8.59196 55.4511 8.5625 55.5482 8.5625H56.5492ZM57.0496 12.8741L56.0487 10.075L55.0477 12.8741H57.0496Z" fill="#3B3B3B"/>
<path d="M66.9237 14.2098C66.9904 14.2098 67.048 14.236 67.0966 14.2884C67.1451 14.3408 67.1694 14.403 67.1694 14.475V15.1723C67.1694 15.2443 67.1451 15.3065 67.0966 15.3589C67.048 15.4113 66.9904 15.4375 66.9237 15.4375H62.938C62.8713 15.4375 62.8137 15.4113 62.7651 15.3589C62.7166 15.3065 62.6923 15.2443 62.6923 15.1723V8.82768C62.6923 8.75566 62.7166 8.69345 62.7651 8.64107C62.8137 8.58869 62.8713 8.5625 62.938 8.5625H63.6751C63.7418 8.5625 63.7995 8.58869 63.848 8.64107C63.8965 8.69345 63.9208 8.75566 63.9208 8.82768V14.2098H66.9237Z" fill="#3B3B3B"/>
<path d="M75.0122 14.2098C75.079 14.2098 75.1366 14.236 75.1851 14.2884C75.2337 14.3408 75.2579 14.403 75.2579 14.475V15.1723C75.2579 15.2443 75.2337 15.3065 75.1851 15.3589C75.1366 15.4113 75.079 15.4375 75.0122 15.4375H71.0175C70.9508 15.4375 70.8931 15.4113 70.8446 15.3589C70.7961 15.3065 70.7718 15.2443 70.7718 15.1723V8.82768C70.7718 8.75566 70.7961 8.69345 70.8446 8.64107C70.8931 8.58869 70.9508 8.5625 71.0175 8.5625H74.9394C75.0062 8.5625 75.0638 8.58869 75.1123 8.64107C75.1609 8.69345 75.1851 8.75566 75.1851 8.82768V9.525C75.1851 9.59702 75.1609 9.65923 75.1123 9.71161C75.0638 9.76399 75.0062 9.79018 74.9394 9.79018H72.0003V11.3518H74.7392C74.806 11.3518 74.8636 11.378 74.9121 11.4304C74.9607 11.4827 74.9849 11.5449 74.9849 11.617V12.3143C74.9849 12.3863 74.9607 12.4485 74.9121 12.5009C74.8636 12.5533 74.806 12.5795 74.7392 12.5795H72.0003V14.2098H75.0122Z" fill="#3B3B3B"/>
<path d="M83.2491 15.4375C83.146 15.4375 83.0671 15.408 83.0125 15.3491C82.9579 15.2902 82.9185 15.2443 82.8942 15.2116L80.3463 11.1259V15.1723C80.3463 15.2443 80.3221 15.3065 80.2735 15.3589C80.225 15.4113 80.1674 15.4375 80.1006 15.4375H79.3636C79.2968 15.4375 79.2392 15.4113 79.1907 15.3589C79.1421 15.3065 79.1179 15.2443 79.1179 15.1723V8.82768C79.1179 8.75566 79.1421 8.69345 79.1907 8.64107C79.2392 8.58869 79.2968 8.5625 79.3636 8.5625H80.0005C80.1037 8.5625 80.1825 8.59196 80.2371 8.65089C80.2917 8.70982 80.3312 8.75565 80.3554 8.78839L82.9033 12.8741V8.82768C82.9033 8.75566 82.9276 8.69345 82.9761 8.64107C83.0247 8.58869 83.0823 8.5625 83.149 8.5625H83.8861C83.9528 8.5625 84.0104 8.58869 84.059 8.64107C84.1075 8.69345 84.1318 8.75566 84.1318 8.82768V15.1723C84.1318 15.2443 84.1075 15.3065 84.059 15.3589C84.0104 15.4113 83.9528 15.4375 83.8861 15.4375H83.2491Z" fill="#3B3B3B"/>
<path d="M92.5219 8.5625C92.5886 8.5625 92.6463 8.58869 92.6948 8.64107C92.7433 8.69345 92.7676 8.75566 92.7676 8.82768V9.525C92.7676 9.59702 92.7433 9.65923 92.6948 9.71161C92.6463 9.76399 92.5886 9.79018 92.5219 9.79018H90.884V15.1723C90.884 15.2443 90.8597 15.3065 90.8112 15.3589C90.7627 15.4113 90.705 15.4375 90.6383 15.4375H89.9012C89.8345 15.4375 89.7769 15.4113 89.7283 15.3589C89.6798 15.3065 89.6555 15.2443 89.6555 15.1723V9.79018H88.0176C87.9509 9.79018 87.8932 9.76399 87.8447 9.71161C87.7962 9.65923 87.7719 9.59702 87.7719 9.525V8.82768C87.7719 8.75566 87.7962 8.69345 87.8447 8.64107C87.8932 8.58869 87.9509 8.5625 88.0176 8.5625H92.5219Z" fill="#3B3B3B"/>
<defs>
<filter id="filter0_d_3715_5435" x="-4.2373" y="-0.448639" width="33.2041" height="33.0777" filterUnits="userSpaceOnUse" color-interpolation-filters="sRGB">
<feFlood flood-opacity="0" result="BackgroundImageFix"/>
<feColorMatrix in="SourceAlpha" type="matrix" values="0 0 0 0 0 0 0 0 0 0 0 0 0 0 0 0 0 0 127 0" result="hardAlpha"/>
<feOffset dy="3"/>
<feGaussianBlur stdDeviation="4"/>
<feColorMatrix type="matrix" values="0 0 0 0 0.270833 0 0 0 0 0.270833 0 0 0 0 0.270833 0 0 0 0.5 0"/>
<feBlend mode="normal" in2="BackgroundImageFix" result="effect1_dropShadow_3715_5435"/>
<feBlend mode="normal" in="SourceGraphic" in2="effect1_dropShadow_3715_5435" result="shape"/>
</filter>
<filter id="filter1_d_3715_5435" x="-1.90234" y="3.55136" width="27.2041" height="27.0777" filterUnits="userSpaceOnUse" color-interpolation-filters="sRGB">
<feFlood flood-opacity="0" result="BackgroundImageFix"/>
<feColorMatrix in="SourceAlpha" type="matrix" values="0 0 0 0 0 0 0 0 0 0 0 0 0 0 0 0 0 0 127 0" result="hardAlpha"/>
<feOffset dx="-1" dy="4"/>
<feGaussianBlur stdDeviation="2.5"/>
<feColorMatrix type="matrix" values="0 0 0 0 0.270833 0 0 0 0 0.270833 0 0 0 0 0.270833 0 0 0 1 0"/>
<feBlend mode="normal" in2="BackgroundImageFix" result="effect1_dropShadow_3715_5435"/>
<feBlend mode="normal" in="SourceGraphic" in2="effect1_dropShadow_3715_5435" result="shape"/>
</filter>
<linearGradient id="paint0_linear_3715_5435" x1="14.496" y1="21.6356" x2="23.3535" y2="9.49385" gradientUnits="userSpaceOnUse">
<stop stop-color="#00F5A0"/>
<stop offset="1" stop-color="#00F5A0" stop-opacity="0.1"/>
</linearGradient>
<linearGradient id="paint1_linear_3715_5435" x1="12.3647" y1="3.41994" x2="12.3647" y2="21.629" gradientUnits="userSpaceOnUse">
<stop offset="0.015625" stop-color="#00F5A0"/>
<stop offset="0.015725" stop-color="#00F5A0"/>
<stop offset="0.9998" stop-color="#00F0FF" stop-opacity="0.05"/>
<stop offset="0.9999" stop-color="#00F0FF" stop-opacity="0.05"/>
</linearGradient>
<linearGradient id="paint2_linear_3715_5435" x1="11.0274" y1="22.0651" x2="2.66429" y2="10.8925" gradientUnits="userSpaceOnUse">
<stop stop-color="#00F5A0"/>
<stop offset="1" stop-color="#00F5A0" stop-opacity="0.1"/>
</linearGradient>
<linearGradient id="paint3_linear_3715_5435" x1="12.6996" y1="3.41994" x2="12.6996" y2="21.629" gradientUnits="userSpaceOnUse">
<stop offset="0.015625" stop-color="#00F5A0"/>
<stop offset="0.015725" stop-color="#00F5A0"/>
<stop offset="0.9998" stop-color="#00F0FF" stop-opacity="0.05"/>
<stop offset="0.9999" stop-color="#00F0FF" stop-opacity="0.05"/>
</linearGradient>
<linearGradient id="paint4_linear_3715_5435" x1="8.22536" y1="17.3002" x2="19.5411" y2="6.4357" gradientUnits="userSpaceOnUse">
<stop offset="0.015625" stop-color="#00F5A0"/>
<stop offset="0.015725" stop-color="#00F5A0"/>
<stop offset="0.9998" stop-color="#00F0FF" stop-opacity="0.05"/>
<stop offset="0.9999" stop-color="#00F0FF" stop-opacity="0.05"/>
</linearGradient>
<linearGradient id="paint5_linear_3715_5435" x1="29.9582" y1="5.97507" x2="18.6425" y2="16.8396" gradientUnits="userSpaceOnUse">
<stop stop-color="#15C5FE"/>
<stop offset="0.0001" stop-color="#15C5FE"/>
<stop offset="0.9999" stop-color="#04A5FF" stop-opacity="0.05"/>
<stop offset="1" stop-color="#04A5FF" stop-opacity="0.05"/>
</linearGradient>
<linearGradient id="paint6_linear_3715_5435" x1="5.9363" y1="17.3002" x2="17.2521" y2="6.4357" gradientUnits="userSpaceOnUse">
<stop offset="0.015625" stop-color="#00F5A0"/>
<stop offset="0.015725" stop-color="#00F5A0"/>
<stop offset="0.9998" stop-color="#00F0FF" stop-opacity="0.05"/>
<stop offset="0.9999" stop-color="#00F0FF" stop-opacity="0.05"/>
</linearGradient>
<linearGradient id="paint7_linear_3715_5435" x1="27.6692" y1="5.97507" x2="16.3534" y2="16.8396" gradientUnits="userSpaceOnUse">
<stop stop-color="#15C5FE"/>
<stop offset="0.0001" stop-color="#15C5FE"/>
<stop offset="0.9999" stop-color="#04A5FF" stop-opacity="0.05"/>
<stop offset="1" stop-color="#04A5FF" stop-opacity="0.05"/>
</linearGradient>
<clipPath id="clip0_3715_5435">
<rect width="34.93" height="22.6875" fill="white" transform="translate(0.5 0.3125)"/>
</clipPath>
</defs>
</svg>
