<svg width="14" height="14" viewBox="0 0 14 14" fill="none" xmlns="http://www.w3.org/2000/svg">
<g id="source_icons_profile-circled 1">
<path id="Vector" d="M1.75 10.7587C1.75 10.4471 1.84656 10.1422 2.06989 9.92488C2.68819 9.32317 4.23602 8.16675 7.00001 8.16675C9.764 8.16675 11.3118 9.32318 11.9301 9.92489C12.1534 10.1422 12.25 10.4471 12.25 10.7587C12.25 11.5824 11.5823 12.2501 10.7586 12.2501H3.24139C2.41772 12.2501 1.75 11.5824 1.75 10.7587Z" fill="white" stroke="#263238" stroke-linecap="round" stroke-linejoin="round"/>
<path id="Vector_2" d="M6.99984 6.41667C8.28854 6.41667 9.33317 5.37203 9.33317 4.08333C9.33317 2.79467 8.28854 1.75 6.99984 1.75C5.71114 1.75 4.6665 2.79467 4.6665 4.08333C4.6665 5.37203 5.71114 6.41667 6.99984 6.41667Z" fill="white" stroke="#263238" stroke-linecap="round" stroke-linejoin="round"/>
</g>
</svg>
