<svg width="24" height="24" viewBox="0 0 24 24" fill="none" xmlns="http://www.w3.org/2000/svg">
<g id="source_icons_profile-circled 1">
<path id="Vector" d="M3 18.2645C3 17.8465 3.12935 17.4389 3.42167 17.1403C4.38623 16.1548 7.06008 14 12 14C16.94 14 19.6138 16.1548 20.5783 17.1403C20.8707 17.4389 21 17.8465 21 18.2645V19C21 20.1046 20.1046 21 19 21H5C3.89543 21 3 20.1046 3 19V18.2645Z" stroke="#29B6F6" stroke-width="1.5" stroke-linecap="round" stroke-linejoin="round"/>
<path id="Vector_2" d="M12 11C14.2092 11 16 9.2092 16 7C16 4.79087 14.2092 3 12 3C9.7908 3 8 4.79087 8 7C8 9.2092 9.7908 11 12 11Z" stroke="#29B6F6" stroke-width="1.5" stroke-linecap="round" stroke-linejoin="round"/>
</g>
</svg>
