<svg width="41" height="39" viewBox="0 0 41 39" fill="none" xmlns="http://www.w3.org/2000/svg">
<path d="M0 0.993164H33C37.4183 0.993164 41 4.57489 41 8.99316V30.9932C41 35.4114 37.4183 38.9932 33 38.9932H0V0.993164Z" fill="#E1F5FE"/>
<g clip-path="url(#clip0_3678_20854)">
<path d="M18.0143 18.8772L12.7102 18.2457C12.4127 18.2102 12.1499 18.4418 12.1499 18.7414C12.1498 20.369 12.2222 22.8138 13.5413 22.8138C14.8343 22.8138 17.3958 20.856 18.3376 19.5011C18.5212 19.2371 18.3337 18.9152 18.0143 18.8772Z" fill="#29B6F6"/>
<path d="M22.9705 18.8772L28.2747 18.2457C28.5722 18.2102 28.835 18.4418 28.835 18.7414C28.8351 20.369 28.7627 22.8138 27.4436 22.8138C26.1506 22.8138 23.5891 20.856 22.6472 19.5011C22.4637 19.2371 22.6512 18.9152 22.9705 18.8772Z" fill="#29B6F6"/>
<path d="M20.5581 16.9873C17.64 16.9873 13.2629 14.0078 10.5272 16.3252C7.79155 18.6426 9.9801 25.5947 13.2629 25.5947C16.1293 25.5947 18.7407 22.9026 20.0653 21.0443C20.2924 20.7257 20.7956 20.7415 21.0042 21.0724C22.1752 22.9297 24.5454 25.5947 27.3973 25.5947C30.6801 25.5947 32.8064 18.1792 30.5889 16.3252C28.3715 14.4712 23.4762 16.9873 20.5581 16.9873Z" stroke="#29B6F6" stroke-width="1.5" stroke-linejoin="round"/>
</g>
<defs>
<clipPath id="clip0_3678_20854">
<rect width="24" height="24" fill="white" transform="translate(8.5 7.99463)"/>
</clipPath>
</defs>
</svg>
