<svg width="24" height="24" viewBox="0 0 24 24" fill="none" xmlns="http://www.w3.org/2000/svg">
<g id="source_icons_settings">
<g id="Group">
<g id="Group_2">
<path id="Vector" d="M12.0781 8C9.82943 8 8 9.82946 8 12.0781C8 14.3268 9.82943 16.1562 12.0781 16.1562C12.4981 16.1562 12.9126 16.0925 13.3099 15.9668C13.6801 15.8496 13.8852 15.4545 13.768 15.0842C13.6509 14.714 13.2556 14.5089 12.8855 14.626C12.6256 14.7083 12.354 14.75 12.0781 14.75C10.6049 14.75 9.40625 13.5514 9.40625 12.0781C9.40625 10.6048 10.6049 9.40625 12.0781 9.40625C13.5514 9.40625 14.75 10.6048 14.75 12.0781C14.75 12.3342 14.714 12.5872 14.6429 12.83C14.5339 13.2027 14.7477 13.5932 15.1204 13.7022C15.4932 13.8112 15.8836 13.5974 15.9927 13.2247C16.1012 12.8536 16.1562 12.4678 16.1562 12.0781C16.1562 9.82946 14.3268 8 12.0781 8Z" fill="#29B6F6"/>
</g>
</g>
<g id="Group_3">
<g id="Group_4">
<g id="Vector_2">
<mask id="path-2-inside-1_3781_11196" fill="white">
<path d="M20.4219 8.99223H19.9891C19.8753 8.99223 19.7721 8.92052 19.7274 8.81232L19.7197 8.79376C19.6734 8.6823 19.6956 8.55825 19.7761 8.47772L20.0821 8.1717C21.0873 7.16649 21.0873 5.53088 20.0821 4.52567L19.4745 3.91801C18.9875 3.43104 18.34 3.16287 17.6514 3.16287C16.9627 3.16287 16.3153 3.43104 15.8284 3.91801L15.5224 4.22399C15.4418 4.30455 15.3177 4.32664 15.2067 4.28054L15.1905 4.27383C15.0795 4.22798 15.0079 4.12482 15.0079 4.01099V3.57812C15.0079 2.15655 13.8513 1 12.4297 1H11.5704C10.1488 1 8.99223 2.15655 8.99223 3.57812V4.01099C8.99223 4.12482 8.92056 4.22798 8.81052 4.2734L8.79371 4.28036C8.68238 4.32668 8.5582 4.30455 8.47772 4.22403L8.1717 3.91801C7.68478 3.43104 7.03732 3.16287 6.34866 3.16287C5.66 3.16287 5.01259 3.43104 4.52563 3.91801L3.91796 4.52559C2.91275 5.53084 2.91275 7.1664 3.91801 8.17166L4.22399 8.47764C4.30451 8.5582 4.3266 8.68225 4.27903 8.79689L4.27383 8.80944C4.22803 8.92043 4.12477 8.99214 4.01095 8.99214H3.57812C2.15655 8.99214 1 10.1487 1 11.5703V12.4296C1 13.8512 2.15655 15.0078 3.57812 15.0078H4.01091C4.12477 15.0078 4.22794 15.0795 4.27267 15.1877L4.28032 15.2062C4.3266 15.3177 4.30447 15.4418 4.22395 15.5223L3.91796 15.8283C3.431 16.3153 3.16283 16.9627 3.16283 17.6513C3.16283 18.34 3.431 18.9874 3.91792 19.4743L4.52559 20.082C5.01255 20.569 5.66 20.8371 6.34862 20.8371C7.03732 20.8371 7.68473 20.569 8.17166 20.082L8.47764 19.776C8.55812 19.6954 8.68234 19.6734 8.79333 19.7195L8.80953 19.7262C8.92052 19.772 8.99219 19.8752 8.99219 19.989V20.4219C8.99219 21.8435 10.1487 23 11.5703 23H12.4297C13.8513 23 15.0078 21.8435 15.0078 20.4219V19.989C15.0078 19.8752 15.0795 19.772 15.1895 19.7266L15.2063 19.7196C15.3177 19.6734 15.4418 19.6955 15.5223 19.776L15.8283 20.082C16.3153 20.569 16.9627 20.8371 17.6514 20.8371C18.34 20.8371 18.9874 20.569 19.4744 20.082L20.0821 19.4743C20.569 18.9874 20.8372 18.34 20.8372 17.6513C20.8372 16.9627 20.569 16.3153 20.0821 15.8283L19.7761 15.5223C19.6955 15.4418 19.6734 15.3177 19.7197 15.2063L19.7262 15.1906C19.772 15.0796 19.8752 15.0079 19.9891 15.0079H20.4219C21.8435 15.0079 23 13.8513 23 12.4297V11.5704C23 10.1488 21.8435 8.99223 20.4219 8.99223ZM21.2812 12.4297C21.2812 12.9035 20.8957 13.2891 20.4219 13.2891H19.9891C19.1767 13.2891 18.45 13.7779 18.1376 14.5344L18.132 14.5479C17.8184 15.3041 17.9866 16.1635 18.5606 16.7376L18.8667 17.0437C19.029 17.206 19.1184 17.4218 19.1184 17.6513C19.1184 17.8809 19.029 18.0967 18.8667 18.259L18.259 18.8667C18.0967 19.029 17.8809 19.1184 17.6513 19.1184C17.4218 19.1184 17.206 19.029 17.0437 18.8667L16.7376 18.5606C16.1632 17.9863 15.3033 17.8183 14.5466 18.1325L14.5345 18.1376C13.7779 18.45 13.2891 19.1767 13.2891 19.989V20.4219C13.2891 20.8957 12.9035 21.2812 12.4297 21.2812H11.5703C11.0965 21.2812 10.7109 20.8957 10.7109 20.4219V19.989C10.7109 19.1767 10.2221 18.45 9.46463 18.1372L9.45303 18.1324C9.19994 18.0272 8.93538 17.9761 8.6737 17.9761C8.15331 17.9761 7.64456 18.1785 7.26235 18.5606L6.95633 18.8667C6.79399 19.029 6.57825 19.1184 6.34866 19.1184C6.11912 19.1184 5.90329 19.029 5.741 18.8667L5.13334 18.259C4.971 18.0967 4.88162 17.8809 4.88162 17.6513C4.88162 17.4218 4.971 17.206 5.13334 17.0437L5.43936 16.7376C6.01346 16.1635 6.18164 15.3041 5.86802 14.5479L5.86243 14.5344C5.54996 13.7779 4.82323 13.2891 4.01095 13.2891H3.57812C3.10427 13.2891 2.71875 12.9035 2.71875 12.4297V11.5703C2.71875 11.0965 3.10427 10.7109 3.57812 10.7109H4.01095C4.82327 10.7109 5.55 10.2221 5.86359 9.46282L5.86759 9.45307C6.18177 8.69665 6.01368 7.83676 5.43932 7.26235L5.13334 6.95637C4.79822 6.62126 4.79822 6.07607 5.13334 5.741L5.74096 5.13334C5.90334 4.97104 6.11912 4.88162 6.34866 4.88162C6.57825 4.88162 6.79403 4.971 6.95633 5.13334L7.26239 5.4394C7.83684 6.01372 8.69678 6.18182 9.45341 5.86746L9.46553 5.86243C10.2221 5.55005 10.7109 4.82332 10.7109 4.01099V3.57812C10.7109 3.10427 11.0965 2.71875 11.5703 2.71875H12.4297C12.9035 2.71875 13.2891 3.10427 13.2891 3.57812V4.01099C13.2891 4.82332 13.7779 5.55005 14.5354 5.86277L14.547 5.86759C15.3033 6.18169 16.1632 6.01364 16.7376 5.43932L17.0437 5.13325C17.206 4.97096 17.4218 4.88158 17.6513 4.88158C17.8809 4.88158 18.0967 4.971 18.259 5.13329L18.8667 5.74096C19.2018 6.07603 19.2018 6.62121 18.8667 6.95629L18.5606 7.26235C17.9863 7.83676 17.8182 8.69661 18.1311 9.44989L18.1376 9.46557C18.45 10.2221 19.1768 10.7109 19.9891 10.7109H20.4219C20.8957 10.7109 21.2812 11.0965 21.2812 11.5703V12.4297Z"/>
</mask>
<path d="M20.4219 8.99223H19.9891C19.8753 8.99223 19.7721 8.92052 19.7274 8.81232L19.7197 8.79376C19.6734 8.6823 19.6956 8.55825 19.7761 8.47772L20.0821 8.1717C21.0873 7.16649 21.0873 5.53088 20.0821 4.52567L19.4745 3.91801C18.9875 3.43104 18.34 3.16287 17.6514 3.16287C16.9627 3.16287 16.3153 3.43104 15.8284 3.91801L15.5224 4.22399C15.4418 4.30455 15.3177 4.32664 15.2067 4.28054L15.1905 4.27383C15.0795 4.22798 15.0079 4.12482 15.0079 4.01099V3.57812C15.0079 2.15655 13.8513 1 12.4297 1H11.5704C10.1488 1 8.99223 2.15655 8.99223 3.57812V4.01099C8.99223 4.12482 8.92056 4.22798 8.81052 4.2734L8.79371 4.28036C8.68238 4.32668 8.5582 4.30455 8.47772 4.22403L8.1717 3.91801C7.68478 3.43104 7.03732 3.16287 6.34866 3.16287C5.66 3.16287 5.01259 3.43104 4.52563 3.91801L3.91796 4.52559C2.91275 5.53084 2.91275 7.1664 3.91801 8.17166L4.22399 8.47764C4.30451 8.5582 4.3266 8.68225 4.27903 8.79689L4.27383 8.80944C4.22803 8.92043 4.12477 8.99214 4.01095 8.99214H3.57812C2.15655 8.99214 1 10.1487 1 11.5703V12.4296C1 13.8512 2.15655 15.0078 3.57812 15.0078H4.01091C4.12477 15.0078 4.22794 15.0795 4.27267 15.1877L4.28032 15.2062C4.3266 15.3177 4.30447 15.4418 4.22395 15.5223L3.91796 15.8283C3.431 16.3153 3.16283 16.9627 3.16283 17.6513C3.16283 18.34 3.431 18.9874 3.91792 19.4743L4.52559 20.082C5.01255 20.569 5.66 20.8371 6.34862 20.8371C7.03732 20.8371 7.68473 20.569 8.17166 20.082L8.47764 19.776C8.55812 19.6954 8.68234 19.6734 8.79333 19.7195L8.80953 19.7262C8.92052 19.772 8.99219 19.8752 8.99219 19.989V20.4219C8.99219 21.8435 10.1487 23 11.5703 23H12.4297C13.8513 23 15.0078 21.8435 15.0078 20.4219V19.989C15.0078 19.8752 15.0795 19.772 15.1895 19.7266L15.2063 19.7196C15.3177 19.6734 15.4418 19.6955 15.5223 19.776L15.8283 20.082C16.3153 20.569 16.9627 20.8371 17.6514 20.8371C18.34 20.8371 18.9874 20.569 19.4744 20.082L20.0821 19.4743C20.569 18.9874 20.8372 18.34 20.8372 17.6513C20.8372 16.9627 20.569 16.3153 20.0821 15.8283L19.7761 15.5223C19.6955 15.4418 19.6734 15.3177 19.7197 15.2063L19.7262 15.1906C19.772 15.0796 19.8752 15.0079 19.9891 15.0079H20.4219C21.8435 15.0079 23 13.8513 23 12.4297V11.5704C23 10.1488 21.8435 8.99223 20.4219 8.99223ZM21.2812 12.4297C21.2812 12.9035 20.8957 13.2891 20.4219 13.2891H19.9891C19.1767 13.2891 18.45 13.7779 18.1376 14.5344L18.132 14.5479C17.8184 15.3041 17.9866 16.1635 18.5606 16.7376L18.8667 17.0437C19.029 17.206 19.1184 17.4218 19.1184 17.6513C19.1184 17.8809 19.029 18.0967 18.8667 18.259L18.259 18.8667C18.0967 19.029 17.8809 19.1184 17.6513 19.1184C17.4218 19.1184 17.206 19.029 17.0437 18.8667L16.7376 18.5606C16.1632 17.9863 15.3033 17.8183 14.5466 18.1325L14.5345 18.1376C13.7779 18.45 13.2891 19.1767 13.2891 19.989V20.4219C13.2891 20.8957 12.9035 21.2812 12.4297 21.2812H11.5703C11.0965 21.2812 10.7109 20.8957 10.7109 20.4219V19.989C10.7109 19.1767 10.2221 18.45 9.46463 18.1372L9.45303 18.1324C9.19994 18.0272 8.93538 17.9761 8.6737 17.9761C8.15331 17.9761 7.64456 18.1785 7.26235 18.5606L6.95633 18.8667C6.79399 19.029 6.57825 19.1184 6.34866 19.1184C6.11912 19.1184 5.90329 19.029 5.741 18.8667L5.13334 18.259C4.971 18.0967 4.88162 17.8809 4.88162 17.6513C4.88162 17.4218 4.971 17.206 5.13334 17.0437L5.43936 16.7376C6.01346 16.1635 6.18164 15.3041 5.86802 14.5479L5.86243 14.5344C5.54996 13.7779 4.82323 13.2891 4.01095 13.2891H3.57812C3.10427 13.2891 2.71875 12.9035 2.71875 12.4297V11.5703C2.71875 11.0965 3.10427 10.7109 3.57812 10.7109H4.01095C4.82327 10.7109 5.55 10.2221 5.86359 9.46282L5.86759 9.45307C6.18177 8.69665 6.01368 7.83676 5.43932 7.26235L5.13334 6.95637C4.79822 6.62126 4.79822 6.07607 5.13334 5.741L5.74096 5.13334C5.90334 4.97104 6.11912 4.88162 6.34866 4.88162C6.57825 4.88162 6.79403 4.971 6.95633 5.13334L7.26239 5.4394C7.83684 6.01372 8.69678 6.18182 9.45341 5.86746L9.46553 5.86243C10.2221 5.55005 10.7109 4.82332 10.7109 4.01099V3.57812C10.7109 3.10427 11.0965 2.71875 11.5703 2.71875H12.4297C12.9035 2.71875 13.2891 3.10427 13.2891 3.57812V4.01099C13.2891 4.82332 13.7779 5.55005 14.5354 5.86277L14.547 5.86759C15.3033 6.18169 16.1632 6.01364 16.7376 5.43932L17.0437 5.13325C17.206 4.97096 17.4218 4.88158 17.6513 4.88158C17.8809 4.88158 18.0967 4.971 18.259 5.13329L18.8667 5.74096C19.2018 6.07603 19.2018 6.62121 18.8667 6.95629L18.5606 7.26235C17.9863 7.83676 17.8182 8.69661 18.1311 9.44989L18.1376 9.46557C18.45 10.2221 19.1768 10.7109 19.9891 10.7109H20.4219C20.8957 10.7109 21.2812 11.0965 21.2812 11.5703V12.4297Z" fill="#29B6F6" stroke="white" stroke-width="0.2" mask="url(#path-2-inside-1_3781_11196)"/>
</g>
</g>
</g>
</g>
</svg>
