<svg width="25" height="24" viewBox="0 0 25 24" fill="none" xmlns="http://www.w3.org/2000/svg">
<path d="M17.5 20.3333C18.8807 20.3333 20 19.2141 20 17.8333C20 16.4526 18.8807 15.3333 17.5 15.3333C16.1192 15.3333 15 16.4526 15 17.8333C15 19.2141 16.1192 20.3333 17.5 20.3333Z" fill="white" stroke="#263238" stroke-width="1.5" stroke-linecap="round" stroke-linejoin="round"/>
<path d="M17.5 8.66666C18.8807 8.66666 20 7.54736 20 6.16666C20 4.78595 18.8807 3.66666 17.5 3.66666C16.1192 3.66666 15 4.78595 15 6.16666C15 7.54736 16.1192 8.66666 17.5 8.66666Z" fill="white" stroke="#263238" stroke-width="1.5" stroke-linecap="round" stroke-linejoin="round"/>
<path d="M7.5 14.5C8.88071 14.5 10 13.3807 10 12C10 10.6192 8.88071 9.5 7.5 9.5C6.11929 9.5 5 10.6192 5 12C5 13.3807 6.11929 14.5 7.5 14.5Z" stroke="#263238" stroke-width="1.5" stroke-linecap="round" stroke-linejoin="round"/>
<path d="M15.4167 7.41666L9.58334 10.75" stroke="#263238" stroke-width="1.5"/>
<path d="M9.58334 13.25L15.4167 16.5833" stroke="#263238" stroke-width="1.5"/>
</svg>
