<svg width="24" height="24" viewBox="0 0 24 24" fill="none" xmlns="http://www.w3.org/2000/svg">
<path d="M17 20.3335C18.3807 20.3335 19.5 19.2142 19.5 17.8335C19.5 16.4527 18.3807 15.3335 17 15.3335C15.6192 15.3335 14.5 16.4527 14.5 17.8335C14.5 19.2142 15.6192 20.3335 17 20.3335Z" stroke="#29B6F6" stroke-width="1.5" stroke-linecap="round" stroke-linejoin="round"/>
<path d="M17 8.6665C18.3807 8.6665 19.5 7.54721 19.5 6.1665C19.5 4.7858 18.3807 3.6665 17 3.6665C15.6192 3.6665 14.5 4.7858 14.5 6.1665C14.5 7.54721 15.6192 8.6665 17 8.6665Z" stroke="#29B6F6" stroke-width="1.5" stroke-linecap="round" stroke-linejoin="round"/>
<path d="M7 14.5C8.38071 14.5 9.5 13.3807 9.5 12C9.5 10.6192 8.38071 9.5 7 9.5C5.61929 9.5 4.5 10.6192 4.5 12C4.5 13.3807 5.61929 14.5 7 14.5Z" stroke="#29B6F6" stroke-width="1.5" stroke-linecap="round" stroke-linejoin="round"/>
<path d="M14.9168 7.4165L9.0835 10.7498" stroke="#29B6F6" stroke-width="1.5"/>
<path d="M9.0835 13.25L14.9168 16.5833" stroke="#29B6F6" stroke-width="1.5"/>
</svg>
