<svg width="47" height="47" viewBox="0 0 47 47" fill="none" xmlns="http://www.w3.org/2000/svg">
<g clip-path="url(#clip0_489_13436)">
<circle cx="23.5003" cy="23.5" r="19.5833" fill="url(#paint0_linear_489_13436)"/>
<path d="M23.2538 28.5754C22.0516 28.5754 21.0439 29.5831 21.0439 30.7852C21.0439 31.9874 22.0516 32.995 23.2538 32.995C24.4117 32.995 25.4636 31.9874 25.4105 30.8382C25.4636 29.5742 24.4647 28.5754 23.2538 28.5754Z" fill="white"/>
<path d="M22.706 13.0623C21.6541 13.3628 21 14.3175 21 15.4754C21.053 16.1737 21.0972 16.8809 21.1503 17.5792C21.3005 20.2398 21.4508 22.8474 21.6011 25.508C21.6541 26.4097 22.3524 27.0638 23.254 27.0638C24.1556 27.0638 24.8628 26.3655 24.907 25.455C24.907 24.907 24.907 24.4031 24.96 23.8463C25.0572 22.1403 25.1633 20.4343 25.2605 18.7283C25.3136 17.6234 25.4108 16.5185 25.4639 15.4136C25.4639 15.0158 25.4108 14.6622 25.2605 14.3086C24.8097 13.3186 23.7579 12.8148 22.706 13.0623Z" fill="white"/>
</g>
<defs>
<linearGradient id="paint0_linear_489_13436" x1="12.7095" y1="-70.1179" x2="53.4704" y2="-65.2723" gradientUnits="userSpaceOnUse">
<stop stop-color="#FFAF13"/>
<stop offset="1" stop-color="#FF7313"/>
</linearGradient>
<clipPath id="clip0_489_13436">
<rect width="47" height="47" fill="white"/>
</clipPath>
</defs>
</svg>
