
<svg width="19" height="19" viewBox="0 0 19 19" fill="none" xmlns="http://www.w3.org/2000/svg">
<path d="M5.54167 2.375H3.95833C3.08388 2.375 2.375 3.08388 2.375 3.95833V5.54167" stroke="#29B6F6" stroke-width="1.5" stroke-linecap="round" stroke-linejoin="round"/>
<path d="M13.4583 2.375H15.0416C15.9161 2.375 16.6249 3.08388 16.6249 3.95833V5.54167" stroke="#29B6F6" stroke-width="1.5" stroke-linecap="round" stroke-linejoin="round"/>
<path d="M12.6667 6.33325V7.91658" stroke="#29B6F6" stroke-width="1.5" stroke-linecap="round" stroke-linejoin="round"/>
<path d="M6.33325 6.33325V7.91658" stroke="#29B6F6" stroke-width="1.5" stroke-linecap="round" stroke-linejoin="round"/>
<path d="M7.125 12.6667C7.125 12.6667 7.91667 13.4584 9.5 13.4584C11.0833 13.4584 11.875 12.6667 11.875 12.6667" stroke="#29B6F6" stroke-width="1.5" stroke-linecap="round" stroke-linejoin="round"/>
<path d="M9.49992 6.33325V10.2916H8.70825" stroke="#29B6F6" stroke-width="1.5" stroke-linecap="round" stroke-linejoin="round"/>
<path d="M5.54167 16.6249H3.95833C3.08388 16.6249 2.375 15.9161 2.375 15.0416V13.4583" stroke="#29B6F6" stroke-width="1.5" stroke-linecap="round" stroke-linejoin="round"/>
<path d="M13.4583 16.6249H15.0416C15.9161 16.6249 16.6249 15.9161 16.6249 15.0416V13.4583" stroke="#29B6F6" stroke-width="1.5" stroke-linecap="round" stroke-linejoin="round"/>
</svg>
