
<svg width="19" height="19" viewBox="0 0 19 19" fill="none" xmlns="http://www.w3.org/2000/svg">
<g clip-path="url(#clip0_282_12125)">
<path d="M14.25 6.64992C14.25 5.30615 13.7496 4.01743 12.8587 3.06725C11.9679 2.11706 10.7598 1.58325 9.5 1.58325C8.24022 1.58325 7.03204 2.11706 6.14124 3.06725C5.25044 4.01743 4.75 5.30615 4.75 6.64992C4.75 12.5611 2.375 14.2499 2.375 14.2499H16.625C16.625 14.2499 14.25 12.5611 14.25 6.64992Z" stroke="#29B6F6" stroke-width="1.5" stroke-linecap="round" stroke-linejoin="round"/>
<path d="M10.8695 16.625C10.7304 16.865 10.5306 17.0641 10.2902 17.2025C10.0498 17.341 9.77735 17.4139 9.49995 17.4139C9.22255 17.4139 8.95006 17.341 8.70971 17.2025C8.46936 17.0641 8.26955 16.865 8.13037 16.625" stroke="#29B6F6" stroke-width="1.5" stroke-linecap="round" stroke-linejoin="round"/>
</g>
<defs>
<clipPath id="clip0_282_12125">
<rect width="19" height="19" fill="white"/>
</clipPath>
</defs>
</svg>
