<svg width="19" height="20" viewBox="0 0 19 20" fill="none" xmlns="http://www.w3.org/2000/svg">
<path d="M16.625 13.1667L16.625 6.83333M16.625 13.1667L16.625 15.125C16.625 16.2296 15.7296 17.125 14.625 17.125L4.375 17.125C3.27043 17.125 2.375 16.2296 2.375 15.125L2.375 4.875C2.375 3.77043 3.27043 2.875 4.375 2.875L14.625 2.875C15.7296 2.875 16.625 3.77043 16.625 4.875L16.625 6.83333M16.625 13.1667L8.72917 13.1667C7.6246 13.1667 6.72917 12.2712 6.72917 11.1667L6.72917 8.83333C6.72917 7.72876 7.6246 6.83333 8.72917 6.83333L16.625 6.83333M10.2917 9.20833V9.20833C9.85444 9.20833 9.5 9.56277 9.5 10V10C9.5 10.4372 9.85444 10.7917 10.2917 10.7917V10.7917C10.7289 10.7917 11.0833 10.4372 11.0833 10V10C11.0833 9.56277 10.7289 9.20833 10.2917 9.20833Z" stroke="url(#paint0_linear_282_8266)" stroke-width="1.5"/>
<defs>
<linearGradient id="paint0_linear_282_8266" x1="-24.561" y1="13.926" x2="-22.798" y2="-0.903992" gradientUnits="userSpaceOnUse">
<stop stop-color="#CE0EFE"/>
<stop offset="1" stop-color="#9012DE"/>
</linearGradient>
</defs>
</svg>
