<svg width="25" height="25" viewBox="0 0 25 25" fill="none" xmlns="http://www.w3.org/2000/svg">
<path d="M21.5 16.5L21.5 8.5M21.5 16.5L21.5 19.5C21.5 20.6046 20.6046 21.5 19.5 21.5L5.5 21.5C4.39543 21.5 3.5 20.6046 3.5 19.5L3.5 5.5C3.5 4.39543 4.39543 3.5 5.5 3.5L19.5 3.5C20.6046 3.5 21.5 4.39543 21.5 5.5L21.5 8.5M21.5 16.5L11 16.5C9.89543 16.5 9 15.6046 9 14.5L9 10.5C9 9.39543 9.89543 8.5 11 8.5L21.5 8.5M13.5 11.5V11.5C12.9477 11.5 12.5 11.9477 12.5 12.5V12.5C12.5 13.0523 12.9477 13.5 13.5 13.5V13.5C14.0523 13.5 14.5 13.0523 14.5 12.5V12.5C14.5 11.9477 14.0523 11.5 13.5 11.5Z" stroke="white" stroke-width="1.5"/>
</svg>
