<svg width="27" height="28" viewBox="0 0 27 28" fill="none" xmlns="http://www.w3.org/2000/svg">
<g clip-path="url(#clip0_1076_16304)">
<path d="M26.9864 14.2526C26.9864 13.1464 26.8945 12.3392 26.6957 11.5021H13.7695V16.4948H21.3569C21.204 17.7356 20.3779 19.6041 18.5422 20.8597L18.5165 21.0269L22.6035 24.1208L22.8867 24.1485C25.4872 21.8015 26.9864 18.3484 26.9864 14.2526Z" fill="#4285F4"/>
<path d="M13.7698 27.4073C17.4869 27.4073 20.6075 26.2114 22.8869 24.1486L18.5425 20.8598C17.3799 21.6521 15.8195 22.2052 13.7698 22.2052C10.129 22.2052 7.039 19.8583 5.93749 16.6145L5.77603 16.6279L1.52628 19.8418L1.4707 19.9928C3.73468 24.3876 8.38506 27.4073 13.7698 27.4073Z" fill="#34A853"/>
<path d="M5.93723 16.6145C5.64659 15.7774 5.47838 14.8804 5.47838 13.9536C5.47838 13.0268 5.64659 12.1299 5.92194 11.2928L5.91424 11.1145L1.61124 7.84894L1.47045 7.91438C0.537363 9.73811 0.00195312 11.7861 0.00195312 13.9536C0.00195312 16.1211 0.537363 18.169 1.47045 19.9928L5.93723 16.6145Z" fill="#FBBC05"/>
<path d="M13.7697 5.70203C16.3549 5.70203 18.0988 6.79326 19.0931 7.70518L22.9786 3.99794C20.5923 1.83042 17.4869 0.5 13.7697 0.5C8.38505 0.5 3.73467 3.51957 1.4707 7.91438L5.92219 11.2928C7.03899 8.04897 10.129 5.70203 13.7697 5.70203Z" fill="#EB4335"/>
</g>
<defs>
<clipPath id="clip0_1076_16304">
<rect width="27" height="27" fill="white" transform="translate(0 0.5)"/>
</clipPath>
</defs>
</svg>
