<svg width="25" height="24" viewBox="0 0 25 24" fill="none" xmlns="http://www.w3.org/2000/svg">
<path d="M21.5 11.4395L12.99 19.4655C11.9475 20.4487 10.5335 21.0011 9.05912 21.0011C7.58475 21.0011 6.17077 20.4487 5.12823 19.4655C4.08569 18.4822 3.5 17.1487 3.5 15.7582C3.5 14.3676 4.08569 13.0341 5.12823 12.0508L13.6382 4.02485C14.3332 3.36935 15.2759 3.0011 16.2588 3.0011C17.2417 3.0011 18.1844 3.36935 18.8794 4.02485C19.5744 4.68034 19.9649 5.56939 19.9649 6.4964C19.9649 7.42341 19.5744 8.31245 18.8794 8.96794L10.3602 16.9939C10.0126 17.3217 9.54132 17.5058 9.04986 17.5058C8.5584 17.5058 8.08708 17.3217 7.73956 16.9939C7.39205 16.6662 7.19682 16.2217 7.19682 15.7582C7.19682 15.2946 7.39205 14.8501 7.73956 14.5224L15.6013 7.11647" stroke="black" stroke-width="1.5" stroke-linecap="round" stroke-linejoin="round"/>
</svg>
