<svg width="20" height="20" viewBox="0 0 20 20" fill="none" xmlns="http://www.w3.org/2000/svg">
<g id="source_icons_share-android 1">
<path id="Vector" d="M15 18.3333C16.3807 18.3333 17.5 17.2141 17.5 15.8333C17.5 14.4526 16.3807 13.3333 15 13.3333C13.6192 13.3333 12.5 14.4526 12.5 15.8333C12.5 17.2141 13.6192 18.3333 15 18.3333Z" stroke="#29B6F6" stroke-width="1.5" stroke-linecap="round" stroke-linejoin="round"/>
<path id="Vector_2" d="M15 6.66666C16.3807 6.66666 17.5 5.54736 17.5 4.16666C17.5 2.78595 16.3807 1.66666 15 1.66666C13.6192 1.66666 12.5 2.78595 12.5 4.16666C12.5 5.54736 13.6192 6.66666 15 6.66666Z" stroke="#29B6F6" stroke-width="1.5" stroke-linecap="round" stroke-linejoin="round"/>
<path id="Vector_3" d="M5 12.5C6.38071 12.5 7.5 11.3807 7.5 10C7.5 8.61925 6.38071 7.5 5 7.5C3.61929 7.5 2.5 8.61925 2.5 10C2.5 11.3807 3.61929 12.5 5 12.5Z" stroke="#29B6F6" stroke-width="1.5" stroke-linecap="round" stroke-linejoin="round"/>
<path id="Vector_4" d="M12.9167 5.41669L7.08333 8.75002" stroke="#29B6F6" stroke-width="1.5"/>
<path id="Vector_5" d="M7.08333 11.25L12.9167 14.5833" stroke="#29B6F6" stroke-width="1.5"/>
</g>
</svg>
