<svg width="25" height="13" viewBox="0 0 25 13" fill="none" xmlns="http://www.w3.org/2000/svg">
<path d="M10.0142 4.88261L4.71004 4.25105C4.41256 4.21563 4.1498 4.44721 4.14978 4.74679C4.14968 6.37436 4.22209 8.81924 5.54114 8.81924C6.83419 8.81924 9.39568 6.86138 10.3375 5.50652C10.5211 5.24247 10.3335 4.92063 10.0142 4.88261Z" fill="#29B6F6"/>
<path d="M14.9704 4.88261L20.2746 4.25105C20.5721 4.21563 20.8348 4.44721 20.8349 4.74679C20.8349 6.37436 20.7625 8.81924 19.4435 8.81924C18.1504 8.81924 15.5889 6.86138 14.6471 5.50652C14.4635 5.24247 14.6511 4.92063 14.9704 4.88261Z" fill="#29B6F6"/>
<path d="M12.558 2.99278C9.6399 2.99278 5.2628 0.0132884 2.52711 2.33067C-0.208576 4.64805 1.97997 11.6002 5.2628 11.6002C8.12915 11.6002 10.7406 8.9081 12.0652 7.04975C12.2923 6.73121 12.7955 6.74695 13.0041 7.07786C14.1751 8.93511 16.5453 11.6002 19.3972 11.6002C22.68 11.6002 24.8062 4.18467 22.5888 2.33067C20.3714 0.476676 15.476 2.99278 12.558 2.99278Z" stroke="#29B6F6" stroke-width="1.5" stroke-linejoin="round"/>
</svg>
