<svg width="20" height="27" viewBox="0 0 20 27" fill="none" xmlns="http://www.w3.org/2000/svg">
<g id="man 1" clip-path="url(#clip0_193_4070)">
<path id="Vector" d="M19.2358 25.4793V27.8244C19.2358 28.0884 19.0219 28.3023 18.7579 28.3023H1.31623C1.05222 28.3023 0.838379 28.0884 0.838379 27.8244V25.4793C0.838379 23.019 2.83282 21.0257 5.29377 21.0251C6.16346 21.0245 6.92922 20.5771 7.37004 19.8986C7.81289 19.218 7.76726 18.6262 7.76726 18.1479L7.77622 18.1258C5.63185 17.2381 4.12362 15.1254 4.12362 12.6603V12.4733C3.27215 12.4733 2.63033 11.8005 2.63033 11.0075V8.52507C2.61122 7.66076 2.65064 4.61264 4.85235 2.49037C7.41245 0.0228563 11.4694 0.22475 14.4082 1.54482C14.5038 1.58783 14.5008 1.72461 14.4041 1.76463L13.6377 2.08002C13.523 2.12721 13.5475 2.29625 13.6705 2.30939L14.0427 2.34941C15.8245 2.53995 17.4796 3.50761 18.5058 5.11797C18.5333 5.16158 18.5255 5.22788 18.4903 5.26551C17.8571 5.9351 17.5035 6.82391 17.5035 7.74796V11.0075C17.5035 11.8169 16.8471 12.4733 16.0377 12.4733H15.9505V12.6603C15.9505 15.1254 14.4423 17.2381 12.2979 18.1258L12.3069 18.1479C12.3069 18.6124 12.2575 19.2123 12.7041 19.8986C13.1449 20.5771 13.9107 21.0245 14.7804 21.0251C17.2413 21.0257 19.2358 23.019 19.2358 25.4793Z" fill="#E1F5FE"/>
<path id="Vector_2" d="M19.2358 25.4793V27.8244C19.2358 28.0883 19.0218 28.3022 18.7579 28.3022H1.31623C1.05234 28.3022 0.838379 28.0883 0.838379 27.8244V25.4793C0.838379 23.0189 2.83312 21.026 5.29347 21.0251C6.1634 21.0248 6.92934 20.5769 7.37004 19.8986C8.90837 21.2128 11.1649 21.2136 12.7041 19.8986C13.1447 20.5769 13.9107 21.0248 14.7807 21.0251C17.241 21.026 19.2358 23.0189 19.2358 25.4793Z" fill="#29B6F6" fill-opacity="0.2"/>
<path id="Vector_3" d="M18.5056 5.11824C18.5333 5.16178 18.5256 5.22773 18.4902 5.26524C17.8572 5.93531 17.5036 6.82382 17.5036 7.74793V11.0075C17.5036 11.7474 16.9461 12.4733 15.9505 12.4733V8.78368C15.9505 7.20019 14.6669 5.91655 13.0834 5.91655H6.99078C5.40729 5.91655 4.12366 7.20019 4.12366 8.78368V12.4733C3.27218 12.4733 2.63036 11.8004 2.63036 11.0075V8.52504C2.61125 7.66072 2.65067 4.61261 4.85238 2.49034C7.41237 0.0227623 11.4697 0.224775 14.4081 1.54497C14.5037 1.58791 14.5012 1.72476 14.4042 1.76466L13.6378 2.08016C13.5232 2.12735 13.5474 2.29621 13.6705 2.30941L14.0428 2.34937C15.8248 2.53974 17.4796 3.50739 18.5056 5.11824Z" fill="#29B6F6" fill-opacity="0.2"/>
<path id="Vector_4" d="M15.9504 12.6603C15.9504 15.9274 13.3014 18.5738 10.037 18.5738C6.96127 18.5738 4.12354 16.1827 4.12354 12.4734V8.78375C4.12354 7.20026 5.40717 5.91663 6.99066 5.91663H13.0833C14.6668 5.91663 15.9504 7.20026 15.9504 8.78375V12.6603Z" fill="#E1F5FE"/>
<path id="Vector_5" d="M8.69803 16.4788C9.67029 17.0871 8.90363 18.5788 7.83933 18.1516C5.65112 17.2733 4.12354 15.1408 4.12354 12.6603V8.78372C4.12354 8.18138 4.3093 7.62242 4.62666 7.16093C5.01575 6.59509 5.91549 6.84507 5.91549 7.58908V11.4657C5.91549 13.6465 7.06186 15.4552 8.69803 16.4788Z" fill="#29B6F6" fill-opacity="0.2"/>
<path id="Vector_6" d="M12.3748 19.1287C10.9032 19.7448 9.28595 19.7925 7.7002 19.1287C7.78119 18.7927 7.76769 18.575 7.76769 18.148L7.77665 18.1259C9.21511 18.7229 10.8571 18.7241 12.2983 18.1259L12.3073 18.148C12.3073 18.5752 12.2938 18.7928 12.3748 19.1287Z" fill="#29B6F6" fill-opacity="0.2"/>
<path id="Vector_7" d="M7.70048 22.468C7.47959 22.5375 7.2427 22.5758 6.98872 22.578C4.52203 22.5997 2.51087 24.5502 2.51087 27.017V27.466C2.51087 27.9278 2.13647 28.3022 1.67462 28.3022H1.31623C1.05234 28.3022 0.838379 28.0883 0.838379 27.8244V25.4793C0.838379 23.0189 2.83312 21.026 5.29347 21.0251C6.1634 21.0248 6.92934 20.5769 7.37004 19.8986C7.54769 20.0503 7.73787 20.1866 7.93821 20.3061C8.81943 20.8312 8.679 22.1604 7.70048 22.468Z" fill="#E1F5FE"/>
<path id="Vector_8" d="M12.3737 22.468C12.5946 22.5375 12.8315 22.5758 13.0855 22.578C15.5522 22.5997 17.5634 24.5502 17.5634 27.017V27.466C17.5634 27.9278 17.9378 28.3022 18.3996 28.3022H18.758C19.0219 28.3022 19.2358 28.0883 19.2358 27.8244V25.4793C19.2358 23.0189 17.2411 21.026 14.7808 21.0251C13.9108 21.0248 13.1449 20.5769 12.7042 19.8986C12.5265 20.0503 12.3364 20.1866 12.136 20.3061C11.2548 20.8312 11.3952 22.1604 12.3737 22.468Z" fill="#29B6F6" fill-opacity="0.2"/>
<path id="Vector_9" d="M14.4041 1.76463C13.7018 2.05368 13.6016 2.11741 13.3583 2.07966C9.43548 1.47159 5.99374 3.09468 4.82491 6.90515V6.90575C4.38767 7.40869 4.12366 8.06574 4.12366 8.78371V11.025C4.12366 11.992 2.63036 12.0593 2.63036 11.0075V8.52507C2.61125 7.66076 2.65067 4.61264 4.85238 2.49038C7.41248 0.0228562 11.4695 0.22475 14.4083 1.54482C14.5038 1.58783 14.5008 1.72461 14.4041 1.76463Z" fill="#E1F5FE"/>
<path id="Vector_10" d="M19.7139 25.4795V28.3022C19.7139 28.5661 19.4999 28.7801 19.236 28.7801C18.9721 28.7801 18.7582 28.5661 18.7582 28.3022V25.4795C18.7582 23.2817 16.9796 21.503 14.7816 21.5031C13.7416 21.5031 12.7981 20.9733 12.2574 20.0858C12.1202 19.8604 12.1915 19.5664 12.417 19.4291C12.6423 19.2918 12.9363 19.3632 13.0737 19.5886C13.4393 20.189 14.0778 20.5474 14.7816 20.5474C17.5076 20.5473 19.7139 22.7533 19.7139 25.4795ZM11.375 20.6894C11.4312 20.9473 11.2677 21.2019 11.0098 21.2581C9.75222 21.5321 8.47319 21.2578 7.45482 20.5627C6.44667 21.6431 5.11477 21.5031 5.29307 21.5031C3.09524 21.503 1.31655 23.2815 1.31655 25.4795V28.3022C1.31655 28.5661 1.10259 28.7801 0.838694 28.7801C0.574799 28.7801 0.36084 28.5661 0.36084 28.3022V25.4795C0.36084 22.7536 2.56667 20.5474 5.29295 20.5474C6.39572 20.5474 7.28972 19.6589 7.28972 18.5558V18.43C5.20395 17.4326 3.73992 15.3368 3.65068 12.8962C2.79234 12.6899 2.15279 11.9216 2.15279 11.0075V8.53026C2.12669 7.31771 2.30672 4.28076 4.52104 2.14631C7.25526 -0.489413 11.64 -0.321986 14.8642 1.23014C15.1785 1.38156 15.2262 1.80614 14.9652 2.02601C16.5986 2.42442 18.0071 3.42851 18.912 4.86554C18.9587 4.93955 19.0442 5.05572 19.0219 5.24107C19.008 5.35641 18.9737 5.45402 18.8848 5.54421C18.3024 6.13484 17.9817 6.9175 17.9817 7.74807V11.0076C17.9817 11.2715 17.7677 11.4855 17.5038 11.4855C17.24 11.4855 17.026 11.2715 17.026 11.0076V7.74807C17.026 6.79015 17.3533 5.88092 17.9543 5.15052C17.0382 3.84024 15.6088 2.99755 13.9922 2.82444L13.1523 2.73449C12.6612 2.68192 12.5649 2.00534 13.0213 1.81749L13.4033 1.66021C8.42845 -0.0740988 3.10844 1.85291 3.10844 8.52506V11.0075C3.10844 11.3867 3.32682 11.7162 3.64603 11.8817V8.78388C3.64603 6.93948 5.14661 5.4389 6.991 5.4389H13.0836C14.928 5.4389 16.4286 6.93936 16.4286 8.7837V12.6963C16.4286 16.8521 12.3676 20.0087 8.23521 18.7921C8.20834 19.1331 8.12346 19.4621 7.98518 19.7679C8.78905 20.3199 9.80419 20.5426 10.8063 20.3242C11.0642 20.2681 11.3187 20.4316 11.375 20.6894ZM10.0373 18.0956C13.0345 18.0956 15.4729 15.6572 15.4729 12.66V8.7837C15.4729 7.46638 14.4011 6.39461 13.0836 6.39461H6.991C5.67356 6.39461 4.60173 7.46644 4.60173 8.78388V12.66C4.60173 15.6572 7.0401 18.0956 10.0373 18.0956ZM14.8756 26.3311H13.442C13.1781 26.3311 12.9642 26.5451 12.9642 26.809C12.9642 27.0728 13.1781 27.2868 13.442 27.2868H14.8756C15.1395 27.2868 15.3534 27.0728 15.3534 26.809C15.3534 26.5451 15.1395 26.3311 14.8756 26.3311Z" fill="#29B6F6"/>
</g>
<defs>
<clipPath id="clip0_193_4070">
<rect width="28.675" height="28.675" fill="white" transform="translate(-4.30029 0.105103)"/>
</clipPath>
</defs>
</svg>
