<svg width="31" height="31" viewBox="0 0 31 31" fill="none" xmlns="http://www.w3.org/2000/svg">
<g id="flame 1">
<path id="Vector" d="M26.2515 22.375C25.1791 29.2192 19.3872 30.7806 14.2979 30.5747C8.9722 30.3594 4.64697 26.2531 4.64697 20.925C4.64697 20.925 4.64697 16.3837 8.93611 12.4097C8.93611 12.4097 7.16984 16.4152 10.103 16.8882C13.0361 17.3612 10.1734 11.1174 12.847 8.37242C15.2126 5.94255 16.4899 6.88103 17.5071 4.98906C19.1153 1.99635 17.3405 0.423096 17.3405 0.423096C17.3405 0.423096 22.5194 2.20729 20.9007 6.92801C20.4658 8.15627 19.7238 9.25275 18.7452 10.113C17.5963 11.1426 15.7421 13.3908 18.4303 15.5C20.039 16.7618 23.193 15.3741 23.5713 11.9047C23.5705 11.9038 26.9767 17.748 26.2515 22.375Z" fill="white"/>
</g>
</svg>
