<svg width="18" height="18" viewBox="0 0 18 18" fill="none" xmlns="http://www.w3.org/2000/svg">
<g id="flame 1">
<path id="Vector" d="M8.6609 16.793C8.87635 16.8019 9.09141 16.7944 9.31639 16.7836C9.71377 16.7604 10.7447 16.6291 11.6894 16.2898C13.0116 15.7485 14.1753 14.6744 14.4974 12.617C14.7725 10.8602 13.8689 8.72437 13.3846 7.73976C13.2818 8.08447 13.1064 8.40321 12.8703 8.67463C12.6342 8.94605 12.3427 9.16387 12.0155 9.31349C11.4385 9.55633 10.8419 9.50313 10.4193 9.17179C9.89057 8.75697 9.61405 8.2874 9.59743 7.77609C9.57307 7.02259 10.1165 6.37382 10.5767 5.96158C11.0684 5.52945 11.4415 4.97887 11.6605 4.36208C12.1859 2.8306 11.2531 1.93796 10.5573 1.50781C10.7071 1.96321 10.7368 2.63517 10.2659 3.51105C9.95633 4.08709 9.59597 4.2354 9.17881 4.4071L9.17865 4.40717C8.63402 4.60837 8.14443 4.93495 7.7495 5.36048C7.11772 6.00899 7.12674 7.09177 7.13473 8.04701L7.13474 8.04768C7.14118 8.82048 7.14674 9.48776 6.78038 9.80239C6.68456 9.87801 6.57292 9.93105 6.45377 9.95757C6.33461 9.98409 6.21101 9.98341 6.09216 9.95556C5.90133 9.93609 5.71794 9.87119 5.55735 9.76629C5.39676 9.6614 5.26365 9.51956 5.16916 9.35266C4.97588 8.9971 4.97768 8.55098 5.04031 8.16205C3.47741 9.99769 3.451 11.8597 3.451 11.8806C3.451 13.9213 4.74226 15.6718 6.60204 16.414C7.02843 16.5435 8.03714 16.8005 8.6609 16.793Z" fill="#263238"/>
</g>
</svg>
