<svg width="18" height="18" viewBox="0 0 18 18" fill="none" xmlns="http://www.w3.org/2000/svg">
<g id="Frame 77">
<circle id="Ellipse 39" cx="9" cy="9" r="7" stroke="#263238"/>
<g id="Group">
<path id="Vector" d="M8.90572 10.9438C8.44533 10.9438 8.05941 11.3297 8.05941 11.7901C8.05941 12.2505 8.44533 12.6364 8.90572 12.6364C9.34919 12.6364 9.75203 12.2505 9.73172 11.8104C9.75203 11.3263 9.3695 10.9438 8.90572 10.9438Z" fill="#263238"/>
<path id="Vector_2" d="M8.69593 5.00259C8.29308 5.11769 8.04257 5.4833 8.04257 5.92677C8.06288 6.19421 8.07981 6.46503 8.10012 6.73246C8.15767 7.75143 8.21522 8.75008 8.27277 9.76905C8.29308 10.1143 8.56052 10.3649 8.90582 10.3649C9.25111 10.3649 9.52193 10.0974 9.53886 9.74874C9.53886 9.53885 9.53886 9.34589 9.55917 9.13262C9.59641 8.47926 9.63703 7.82591 9.67427 7.17255C9.69458 6.74939 9.73182 6.32623 9.75213 5.90307C9.75213 5.75074 9.73182 5.61532 9.67427 5.47991C9.50162 5.10076 9.09878 4.9078 8.69593 5.00259Z" fill="#263238"/>
</g>
</g>
</svg>
