<svg width="14" height="14" viewBox="0 0 14 14" fill="none" xmlns="http://www.w3.org/2000/svg">
<g id="source_icons_profile-circled 1">
<path id="Vector" d="M1.75 10.7586C1.75 10.447 1.84656 10.1421 2.06989 9.9248C2.68819 9.32309 4.23602 8.16667 7.00001 8.16667C9.764 8.16667 11.3118 9.32309 11.9301 9.9248C12.1534 10.1421 12.25 10.447 12.25 10.7586C12.25 11.5823 11.5823 12.25 10.7586 12.25H3.24139C2.41772 12.25 1.75 11.5823 1.75 10.7586Z" fill="white" stroke="#263238" stroke-linecap="round" stroke-linejoin="round"/>
<path id="Vector_2" d="M7 6.41667C8.2887 6.41667 9.33333 5.37203 9.33333 4.08333C9.33333 2.79467 8.2887 1.75 7 1.75C5.7113 1.75 4.66667 2.79467 4.66667 4.08333C4.66667 5.37203 5.7113 6.41667 7 6.41667Z" fill="white" stroke="#263238" stroke-linecap="round" stroke-linejoin="round"/>
</g>
</svg>
