<svg width="21" height="20" viewBox="0 0 21 20" fill="none" xmlns="http://www.w3.org/2000/svg">
<g id="source_icons_share-android 1">
<path id="Vector" d="M15.5 18.3333C16.8807 18.3333 18 17.2141 18 15.8333C18 14.4526 16.8807 13.3333 15.5 13.3333C14.1192 13.3333 13 14.4526 13 15.8333C13 17.2141 14.1192 18.3333 15.5 18.3333Z" fill="white" stroke="#263238" stroke-width="1.5" stroke-linecap="round" stroke-linejoin="round"/>
<path id="Vector_2" d="M15.5 6.66669C16.8807 6.66669 18 5.5474 18 4.16669C18 2.78598 16.8807 1.66669 15.5 1.66669C14.1192 1.66669 13 2.78598 13 4.16669C13 5.5474 14.1192 6.66669 15.5 6.66669Z" fill="white" stroke="#263238" stroke-width="1.5" stroke-linecap="round" stroke-linejoin="round"/>
<path id="Vector_3" d="M5.5 12.5C6.88071 12.5 8 11.3807 8 10C8 8.61925 6.88071 7.5 5.5 7.5C4.11929 7.5 3 8.61925 3 10C3 11.3807 4.11929 12.5 5.5 12.5Z" stroke="#263238" stroke-width="1.5" stroke-linecap="round" stroke-linejoin="round"/>
<path id="Vector_4" d="M13.4168 5.41669L7.5835 8.75002" stroke="#263238" stroke-width="1.5"/>
<path id="Vector_5" d="M7.5835 11.25L13.4168 14.5833" stroke="#263238" stroke-width="1.5"/>
</g>
</svg>
