<svg width="18" height="18" viewBox="0 0 18 18" fill="none" xmlns="http://www.w3.org/2000/svg">
<g id="leaderboard-star">
<path id="Path" d="M11.7262 2.56136L12.5055 0.909082C12.6055 0.696973 12.8945 0.696973 12.9945 0.909082L13.7738 2.56136L15.5164 2.82795C15.74 2.86215 15.8291 3.1498 15.6673 3.31482L14.4065 4.60003L14.7041 6.41571C14.7423 6.64888 14.5084 6.82668 14.3084 6.71656L12.75 5.85884L11.1916 6.71656C10.9916 6.82668 10.7577 6.64888 10.7959 6.41571L11.0935 4.60003L9.83273 3.31482C9.67085 3.1498 9.75997 2.86215 9.98356 2.82795L11.7262 2.56136Z" fill="#263238"/>
<line id="Line 3" x1="12.75" y1="8.25" x2="12.75" y2="15.75" stroke="#263238" stroke-width="1.5" stroke-linecap="round"/>
<line id="Line 5" x1="9" y1="12.75" x2="9" y2="15.75" stroke="#263238" stroke-width="1.5" stroke-linecap="round"/>
<line id="Line 6" x1="5.25" y1="10.5" x2="5.25" y2="15.75" stroke="#263238" stroke-width="1.5" stroke-linecap="round"/>
</g>
</svg>
