<svg width="18" height="18" viewBox="0 0 18 18" fill="none" xmlns="http://www.w3.org/2000/svg">
<g id="source_icons_profile-circled 1">
<path id="Vector" d="M2.25 13.8325C2.25 13.4318 2.37415 13.0399 2.66129 12.7605C3.45624 11.9868 5.44631 10.5 9.00001 10.5C12.5537 10.5 14.5438 11.9868 15.3387 12.7605C15.6259 13.0399 15.75 13.4318 15.75 13.8325V13.8325C15.75 14.8915 14.8915 15.75 13.8325 15.75H4.1675C3.10849 15.75 2.25 14.8915 2.25 13.8325V13.8325Z" stroke="#263238" stroke-width="1.5" stroke-linecap="round" stroke-linejoin="round"/>
<path id="Vector_2" d="M9 8.25C10.6569 8.25 12 6.9069 12 5.25C12 3.59315 10.6569 2.25 9 2.25C7.3431 2.25 6 3.59315 6 5.25C6 6.9069 7.3431 8.25 9 8.25Z" stroke="#263238" stroke-width="1.5" stroke-linecap="round" stroke-linejoin="round"/>
</g>
</svg>
