<svg width="104" height="105" viewBox="0 0 104 105" fill="none" xmlns="http://www.w3.org/2000/svg">
<circle cx="52" cy="52" r="50.75" fill="white" stroke="#29B6F6" stroke-width="2.5"/>
<g clip-path="url(#clip0_1_9183)">
<g clip-path="url(#clip1_1_9183)">
<path d="M75.6115 87.0791V93.4171C75.6115 94.1307 75.0335 94.7086 74.32 94.7086H27.1803C26.4668 94.7086 25.8888 94.1307 25.8888 93.4171V87.0791C25.8888 80.4295 31.2792 75.0423 37.9304 75.0407C40.2809 75.0391 42.3506 73.83 43.542 71.996C44.7389 70.1566 44.6155 68.5571 44.6155 67.2643L44.6397 67.2046C38.8442 64.8056 34.7679 59.0956 34.7679 52.4331V51.9278C32.4666 51.9278 30.7319 50.1092 30.7319 47.9661V41.2568C30.6803 38.9208 30.7868 30.6826 36.7374 24.9468C43.6566 18.2778 54.6214 18.8235 62.5641 22.3912C62.8224 22.5075 62.8143 22.8772 62.5528 22.9853L60.4816 23.8377C60.1716 23.9652 60.2378 24.4221 60.5704 24.4576L61.5761 24.5658C66.3918 25.0808 70.8652 27.6961 73.6387 32.0484C73.713 32.1663 73.692 32.3454 73.5967 32.4472C71.8855 34.2569 70.9298 36.659 70.9298 39.1565V47.9661C70.9298 50.1536 69.1556 51.9278 66.9681 51.9278H66.7324V52.4331C66.7324 59.0956 62.6561 64.8056 56.8605 67.2046L56.8848 67.2643C56.8848 68.5198 56.7512 70.1411 57.9583 71.996C59.1497 73.83 61.2193 75.0391 63.5699 75.0407C70.2211 75.0423 75.6115 80.4295 75.6115 87.0791Z" fill="#E1F5FE"/>
<path d="M75.6115 87.0791V93.4171C75.6115 94.1303 75.0332 94.7086 74.32 94.7086H27.1803C26.4671 94.7086 25.8888 94.1303 25.8888 93.4171V87.0791C25.8888 80.4295 31.28 75.0431 37.9296 75.0407C40.2808 75.0399 42.3509 73.8293 43.542 71.996C47.6996 75.5479 53.7982 75.55 57.9583 71.996C59.1492 73.8293 61.2195 75.0399 63.5707 75.0407C70.2203 75.0431 75.6115 80.4295 75.6115 87.0791Z" fill="#29B6F6" fill-opacity="0.2"/>
<path d="M73.638 32.0491C73.7129 32.1668 73.6919 32.345 73.5961 32.4464C71.8854 34.2574 70.9297 36.6588 70.9297 39.1564V47.966C70.9297 49.9659 69.423 51.9277 66.7323 51.9277V41.9557C66.7323 37.676 63.263 34.2067 58.9833 34.2067H42.5167C38.237 34.2067 34.7678 37.676 34.7678 41.9557V51.9277C32.4665 51.9277 30.7318 50.1091 30.7318 47.966V41.2567C30.6802 38.9207 30.7867 30.6826 36.7373 24.9467C43.6562 18.2776 54.6219 18.8235 62.5635 22.3916C62.822 22.5077 62.815 22.8775 62.553 22.9854L60.4816 23.8381C60.172 23.9656 60.2372 24.422 60.5701 24.4577L61.5762 24.5657C66.3925 25.0802 70.8648 27.6955 73.638 32.0491Z" fill="#29B6F6" fill-opacity="0.2"/>
<path d="M66.7322 52.433C66.7322 61.263 59.5728 68.4153 50.7499 68.4153C42.4372 68.4153 34.7677 61.9528 34.7677 51.9277V41.9558C34.7677 37.6761 38.237 34.2068 42.5166 34.2068H58.9832C63.2629 34.2068 66.7322 37.6761 66.7322 41.9558V52.433Z" fill="#E1F5FE"/>
<path d="M47.1312 62.7533C49.7589 64.3972 47.6868 68.4288 44.8104 67.2742C38.8963 64.9004 34.7677 59.1371 34.7677 52.433V41.9557C34.7677 40.3278 35.2697 38.817 36.1275 37.5698C37.1791 36.0405 39.6108 36.7161 39.6108 38.7269V49.2042C39.6108 55.0983 42.7091 59.9866 47.1312 62.7533Z" fill="#29B6F6" fill-opacity="0.2"/>
<path d="M57.0672 69.9152C53.0898 71.5801 48.7189 71.7093 44.4331 69.9152C44.652 69.007 44.6155 68.4187 44.6155 67.2644L44.6397 67.2047C48.5275 68.8184 52.9652 68.8217 56.8605 67.2047L56.8848 67.2644C56.8848 68.4192 56.8483 69.0073 57.0672 69.9152Z" fill="#29B6F6" fill-opacity="0.2"/>
<path d="M44.4348 78.9405C43.8378 79.1283 43.1975 79.2317 42.5111 79.2377C35.8444 79.2965 30.4088 84.5679 30.4088 91.2349V92.4484C30.4088 93.6967 29.3969 94.7086 28.1487 94.7086H27.18C26.4668 94.7086 25.8885 94.1303 25.8885 93.4171V87.0791C25.8885 80.4293 31.2797 75.0431 37.9293 75.0407C40.2805 75.0399 42.3506 73.8293 43.5417 71.996C44.0218 72.406 44.5358 72.7746 45.0773 73.0973C47.459 74.5165 47.0794 78.109 44.4348 78.9405Z" fill="#E1F5FE"/>
<path d="M57.0652 78.9405C57.6622 79.1283 58.3024 79.2317 58.9889 79.2377C65.6556 79.2965 71.0912 84.5679 71.0912 91.2349V92.4484C71.0912 93.6967 72.103 94.7086 73.3513 94.7086H74.3199C75.0331 94.7086 75.6114 94.1303 75.6114 93.4171V87.0791C75.6114 80.4293 70.2202 75.0431 63.5706 75.0407C61.2194 75.0399 59.1493 73.8293 57.9583 71.996C57.4781 72.406 56.9641 72.7746 56.4227 73.0973C54.041 74.5165 54.4205 78.109 57.0652 78.9405Z" fill="#29B6F6" fill-opacity="0.2"/>
<path d="M62.5528 22.9853C60.6546 23.7665 60.384 23.9388 59.7263 23.8367C49.1241 22.1933 39.8221 26.58 36.6631 36.8786V36.8802C35.4814 38.2395 34.7678 40.0153 34.7678 41.9558V48.0134C34.7678 50.6268 30.7319 50.8087 30.7319 47.9661V41.2568C30.6802 38.9208 30.7868 30.6826 36.7373 24.9468C43.6565 18.2778 54.6214 18.8235 62.5641 22.3912C62.8224 22.5075 62.8143 22.8772 62.5528 22.9853Z" fill="#E1F5FE"/>
<path d="M76.9028 87.0796V94.7086C76.9028 95.4219 76.3246 96.0001 75.6114 96.0001C74.8981 96.0001 74.3199 95.4219 74.3199 94.7086V87.0796C74.3199 81.1395 69.5131 76.3324 63.5725 76.3326C60.7617 76.3326 58.2115 74.9006 56.7503 72.502C56.3793 71.8929 56.5723 71.0981 57.1815 70.7271C57.7906 70.356 58.5852 70.5491 58.9564 71.1583C59.9447 72.7809 61.6703 73.7496 63.5725 73.7496C70.94 73.7492 76.9028 79.7114 76.9028 87.0796ZM54.3653 74.1335C54.5172 74.8304 54.0753 75.5184 53.3784 75.6703C49.9795 76.4108 46.5226 75.6695 43.7703 73.7909C41.0456 76.7108 37.4458 76.3326 37.9277 76.3326C31.9877 76.3324 27.1804 81.139 27.1804 87.0796V94.7086C27.1804 95.4219 26.6021 96.0001 25.8889 96.0001C25.1756 96.0001 24.5974 95.4219 24.5974 94.7086V87.0796C24.5974 79.7122 30.5591 73.7496 37.9274 73.7496C40.9079 73.7496 43.3241 71.3482 43.3241 68.3669V68.0268C37.6869 65.3313 33.73 59.6669 33.4889 53.0707C31.169 52.513 29.4405 50.4366 29.4405 47.9661V41.2708C29.3699 37.9936 29.8565 29.7857 35.8412 24.0169C43.2309 16.8933 55.0817 17.3458 63.7958 21.5408C64.6451 21.95 64.7741 23.0975 64.0688 23.6918C68.4833 24.7685 72.2899 27.4823 74.7355 31.3662C74.8618 31.5662 75.093 31.8802 75.0326 32.3811C74.9951 32.6929 74.9023 32.9566 74.6621 33.2004C73.0881 34.7967 72.2213 36.912 72.2213 39.1568V47.9664C72.2213 48.6797 71.6431 49.2579 70.9298 49.2579C70.2166 49.2579 69.6383 48.6797 69.6383 47.9664V39.1568C69.6383 36.5678 70.5229 34.1104 72.1474 32.1364C69.6713 28.5951 65.8081 26.3175 61.4389 25.8497L59.169 25.6066C57.8416 25.4645 57.5812 23.6359 58.8148 23.1282L59.8472 22.7031C46.4017 18.0158 32.0233 23.2239 32.0233 41.2568V47.9661C32.0233 48.9909 32.6135 49.8816 33.4763 50.3289V41.9563C33.4763 36.9714 37.5319 32.9158 42.5167 32.9158H58.9833C63.9682 32.9158 68.0238 36.9711 68.0238 41.9558V52.5304C68.0238 63.7622 57.048 72.2936 45.8795 69.0056C45.8068 69.927 45.5774 70.8162 45.2037 71.6428C47.3763 73.1348 50.1199 73.7366 52.8284 73.1464C53.5253 72.9947 54.2133 73.4365 54.3653 74.1335ZM50.75 67.123C58.8506 67.123 65.4408 60.5329 65.4408 52.4323V41.9558C65.4408 38.3955 62.544 35.4988 58.9833 35.4988H42.5167C38.9561 35.4988 36.0593 38.3956 36.0593 41.9563V52.4323C36.0593 60.5329 42.6494 67.123 50.75 67.123ZM63.8264 89.3812H59.952C59.2387 89.3812 58.6605 89.9595 58.6605 90.6727C58.6605 91.3859 59.2387 91.9642 59.952 91.9642H63.8264C64.5397 91.9642 65.1179 91.3859 65.1179 90.6727C65.1179 89.9595 64.5397 89.3812 63.8264 89.3812Z" fill="#29B6F6"/>
</g>
</g>
<mask id="mask0_1_9183" style="mask-type:alpha" maskUnits="userSpaceOnUse" x="8" y="84" width="89" height="22">
<path d="M96.0002 84.7435H8.50024L34.0002 105H68.7502L96.0002 84.7435Z" fill="#94D8FF" fill-opacity="0.35"/>
</mask>
<g mask="url(#mask0_1_9183)">
<g filter="url(#filter0_b_1_9183)">
<ellipse cx="52" cy="52.3825" rx="52" ry="51.3825" fill="#707070" fill-opacity="0.35"/>
</g>
</g>
<defs>
<filter id="filter0_b_1_9183" x="-15" y="-14" width="134" height="132.765" filterUnits="userSpaceOnUse" color-interpolation-filters="sRGB">
<feFlood flood-opacity="0" result="BackgroundImageFix"/>
<feGaussianBlur in="BackgroundImageFix" stdDeviation="7.5"/>
<feComposite in2="SourceAlpha" operator="in" result="effect1_backgroundBlur_1_9183"/>
<feBlend mode="normal" in="SourceGraphic" in2="effect1_backgroundBlur_1_9183" result="shape"/>
</filter>
<clipPath id="clip0_1_9183">
<rect x="26" y="15" width="50" height="74" rx="16" fill="white"/>
</clipPath>
<clipPath id="clip1_1_9183">
<rect width="77.5" height="77.5" fill="white" transform="translate(12 18.5)"/>
</clipPath>
</defs>
</svg>
