<svg width="29" height="28" viewBox="0 0 29 28" fill="none" xmlns="http://www.w3.org/2000/svg">
<path d="M24.6985 4.10051C30.1658 9.56785 30.1658 18.4322 24.6985 23.8995C19.2311 29.3668 10.3668 29.3668 4.89949 23.8995C-0.567845 18.4322 -0.567845 9.56785 4.89949 4.10051C10.3668 -1.36684 19.2311 -1.36683 24.6985 4.10051Z" fill="white"/>
<path fill-rule="evenodd" clip-rule="evenodd" d="M28.2347 10.056C28.0948 9.57765 27.9288 9.10525 27.7367 8.64109C27.0535 6.98983 26.0408 5.44279 24.6985 4.10051C23.3562 2.75822 21.8092 1.74548 20.1579 1.06228C19.6937 0.870236 19.2213 0.70423 18.7429 0.564264C18.2601 0.42299 17.7711 0.308244 17.2783 0.220026C16.8516 1.67234 17.5807 3.24261 19.011 3.83438C20.3042 4.36945 21.5186 5.16326 22.5772 6.22183C23.6357 7.28039 24.4295 8.49478 24.9646 9.78803C25.5564 11.2183 27.1266 11.9474 28.579 11.5207C28.4907 11.0279 28.376 10.5389 28.2347 10.056ZM28.579 16.4793C27.1266 16.0526 25.5564 16.7817 24.9646 18.212C24.4295 19.5052 23.6357 20.7196 22.5772 21.7782C21.5186 22.8367 20.3042 23.6305 19.011 24.1656C17.5807 24.7574 16.8516 26.3277 17.2783 27.78C17.7711 27.6918 18.2601 27.577 18.7429 27.4357C19.2213 27.2958 19.6937 27.1298 20.1579 26.9377C21.8092 26.2545 23.3562 25.2418 24.6985 23.8995C26.0408 22.5572 27.0535 21.0102 27.7367 19.3589C27.9288 18.8948 28.0948 18.4223 28.2347 17.944C28.376 17.4611 28.4907 16.9721 28.579 16.4793ZM12.3197 27.78C12.7464 26.3277 12.0173 24.7574 10.587 24.1656C9.29377 23.6305 8.07938 22.8367 7.02082 21.7782C5.96225 20.7196 5.16844 19.5052 4.63337 18.212C4.0416 16.7817 2.47133 16.0526 1.01902 16.4793C1.10723 16.9721 1.22198 17.4611 1.36325 17.944C1.50322 18.4224 1.66922 18.8947 1.86127 19.3589C2.54446 21.0102 3.55721 22.5572 4.89949 23.8995C6.24178 25.2418 7.78882 26.2545 9.44008 26.9377C9.90424 27.1298 10.3766 27.2958 10.855 27.4357C11.3379 27.577 11.8269 27.6918 12.3197 27.78ZM1.01902 11.5207C2.47133 11.9474 4.0416 11.2183 4.63337 9.78803C5.16844 8.49478 5.96225 7.28039 7.02082 6.22183C8.07938 5.16326 9.29377 4.36945 10.587 3.83438C12.0173 3.24261 12.7464 1.67234 12.3197 0.220027C11.8269 0.308245 11.3379 0.42299 10.855 0.564264C10.3766 0.704229 9.90424 0.870235 9.44008 1.06228C7.78882 1.74547 6.24178 2.75822 4.89949 4.10051C3.55721 5.44279 2.54446 6.98983 1.86127 8.64109C1.66922 9.10525 1.50322 9.57765 1.36325 10.056C1.22198 10.5389 1.10723 11.0279 1.01902 11.5207Z" fill="url(#paint0_linear_501_13456)"/>
<g clip-path="url(#clip0_501_13456)">
<path d="M10.2908 14.9709L12.9574 17.6375L19.6241 10.9709" stroke="url(#paint1_linear_501_13456)" stroke-width="1.5" stroke-linecap="round" stroke-linejoin="round"/>
</g>
<defs>
<linearGradient id="paint0_linear_501_13456" x1="-37.9802" y1="-27.8696" x2="-14.9259" y2="-46.025" gradientUnits="userSpaceOnUse">
<stop stop-color="#FFAF13"/>
<stop offset="1" stop-color="#FF7313"/>
</linearGradient>
<linearGradient id="paint1_linear_501_13456" x1="12.386" y1="-1.63076" x2="21.971" y2="-0.0355482" gradientUnits="userSpaceOnUse">
<stop stop-color="#FFAF13"/>
<stop offset="1" stop-color="#FF7313"/>
</linearGradient>
<clipPath id="clip0_501_13456">
<rect width="16" height="16" fill="white" transform="translate(6.95752 6.3042)"/>
</clipPath>
</defs>
</svg>
